<?xml version="1.0" standalone="no"?>
<!DOCTYPE svg PUBLIC "-//W3C//DTD SVG 20010904//EN"
 "http://www.w3.org/TR/2001/REC-SVG-20010904/DTD/svg10.dtd">
<svg version="1.0" xmlns="http://www.w3.org/2000/svg"
 width="102.000000pt" height="71.000000pt" viewBox="0 0 102.000000 71.000000"
 preserveAspectRatio="xMidYMid meet">

<g transform="translate(0.000000,71.000000) scale(0.100000,-0.100000)"
fill="#794b1a" stroke="none">
<path d="M410 522 c-26 -16 -132 -23 -194 -12 -33 5 -61 8 -63 6 -5 -4 -30
-164 -38 -243 l-7 -63 66 0 c52 0 66 3 66 15 0 26 19 17 117 -51 94 -66 162
-91 177 -65 4 6 20 11 37 11 17 0 36 8 46 20 10 11 23 20 29 20 13 0 51 29 91
70 20 20 26 22 33 10 6 -8 10 -21 10 -27 0 -18 130 -18 130 0 0 6 -7 72 -17
146 -12 93 -21 135 -31 139 -8 3 -39 0 -70 -5 -48 -9 -65 -7 -112 9 -61 22
-245 35 -270 20z m247 -37 l78 -24 12 -88 c15 -106 6 -128 -36 -90 -37 34
-210 147 -226 147 -7 0 -32 -16 -54 -35 -53 -43 -75 -38 -68 16 5 41 33 85 57
92 48 14 164 5 237 -18z m-424 0 c24 -5 27 -9 26 -48 0 -23 -8 -78 -17 -122
l-17 -80 -48 -3 c-49 -3 -49 -3 -43 25 3 15 10 71 16 123 15 118 15 119 37
115 10 -2 30 -6 46 -10z m122 -17 c-16 -53 -17 -79 -1 -103 21 -33 37 -32 76
5 18 17 43 30 57 30 27 0 175 -92 211 -131 55 -58 -10 -69 -83 -13 -26 19 -49
33 -52 30 -7 -7 46 -53 80 -68 34 -16 30 -32 -10 -36 -22 -2 -42 6 -77 32 -25
20 -46 30 -46 23 0 -6 20 -25 45 -42 24 -16 45 -36 45 -42 0 -24 -56 -13 -98
18 -52 38 -66 33 -17 -6 42 -34 44 -45 8 -45 -18 0 -63 24 -126 69 -55 38
-101 72 -103 74 -3 3 1 52 8 110 l12 106 31 4 c16 2 34 5 39 5 4 1 5 -8 1 -20z
m514 -85 c7 -54 15 -113 18 -130 l5 -33 -46 0 c-45 0 -45 0 -57 43 -12 46 -28
149 -29 184 0 22 15 29 71 32 25 1 26 -1 38 -96z"/>
</g>
</svg>
