<?xml version="1.0" standalone="no"?>
<!DOCTYPE svg PUBLIC "-//W3C//DTD SVG 20010904//EN"
 "http://www.w3.org/TR/2001/REC-SVG-20010904/DTD/svg10.dtd">
<svg version="1.0" xmlns="http://www.w3.org/2000/svg"
 width="75.000000pt" height="79.000000pt" viewBox="0 0 75.000000 79.000000"
 preserveAspectRatio="xMidYMid meet">

<g transform="translate(0.000000,79.000000) scale(0.100000,-0.100000)"
fill="#794b1a" stroke="none">
<path d="M297 736 c-50 -14 -128 -63 -136 -87 -2 -7 14 2 37 19 58 46 121 66
191 59 79 -7 177 -57 112 -57 -11 0 -23 -5 -27 -12 -5 -8 2 -9 26 -5 18 4 36
7 41 7 5 0 9 18 9 40 0 22 -4 40 -10 40 -5 0 -10 -9 -10 -20 0 -21 -10 -26
-26 -11 -12 12 -112 41 -138 40 -12 0 -43 -6 -69 -13z"/>
<path d="M614 584 c54 -83 58 -189 11 -271 -29 -49 -38 -52 -53 -20 -11 22
-11 22 -11 -5 -2 -47 8 -58 51 -58 25 0 37 4 33 11 -4 6 -13 8 -21 5 -20 -8
-18 4 17 71 42 81 43 163 2 242 -15 30 -34 56 -41 59 -8 2 -3 -12 12 -34z"/>
<path d="M295 591 c-67 -31 -89 -62 -93 -134 -3 -60 -2 -65 42 -131 43 -64 46
-74 46 -133 0 -89 17 -113 80 -113 67 0 81 19 84 115 2 57 8 82 23 103 10 15
30 42 43 60 18 25 24 45 24 85 0 73 -23 110 -86 141 -61 31 -108 33 -163 7z
m184 -31 c64 -48 67 -141 7 -229 -20 -29 -39 -63 -42 -76 -5 -20 -12 -22 -70
-24 l-65 -2 -14 35 c-8 20 -30 56 -48 82 -27 39 -32 54 -32 104 1 65 22 100
80 127 45 21 145 11 184 -17z m-39 -365 c0 -12 -14 -15 -65 -15 -51 0 -65 3
-65 15 0 12 14 15 65 15 51 0 65 -3 65 -15z m-1 -49 c-2 -2 -32 -6 -66 -8 -46
-3 -63 -1 -63 9 0 8 20 13 58 15 51 3 83 -4 71 -16z m-21 -38 c-3 -8 -22 -13
-48 -13 -26 0 -45 5 -47 13 -3 8 10 12 47 12 37 0 50 -4 48 -12z"/>
<path d="M88 588 c-32 -11 -38 -29 -8 -21 24 6 24 6 4 -43 -20 -48 -15 -164
10 -211 20 -40 74 -103 88 -103 5 0 -9 21 -31 46 -66 75 -86 167 -55 257 17
51 29 59 39 27 3 -11 10 -20 15 -20 11 0 -14 73 -26 76 -5 1 -21 -2 -36 -8z"/>
</g>
</svg>
