<svg xmlns="http://www.w3.org/2000/svg" viewBox="0 0 285.75 284.25"><defs><style>.cls-1{fill:#fff;}</style></defs><g id="Layer_2" data-name="Layer 2"><g fill='#794b1a' id="Layer_1-2" data-name="Layer 1"><path class="cls-1" d="M285.75,284.25H0V0H285.75ZM27.16,20.74c-3.09-.61-5.67-1-5.35,3,.06.73-1.17,1.52-1.71,2.34-.66,1-1.6,2.07-1.75,3.2a85.49,85.49,0,0,0-1.12,12.14c.19,21.16,1,42.33.7,63.49-.13,10.47,5.76,16.5,12.89,22.17A14.92,14.92,0,0,0,37.15,130c5.46,1,6,1.59,5.3,7.3-.68,5.55-1.16,11.13-1.76,16.69-.29,2.62,1.08,3.54,3.34,2.92a9.17,9.17,0,0,0,4.12-2.26c6.35-6.65,12.6-13.41,18.8-20.2a9.41,9.41,0,0,1,7.63-3.1c12.71.13,25.43.06,38.14.06,5.42,0,13.26,6,15.19,11a68.81,68.81,0,0,0,6.18,11.89c.86,1.34,3.4,2.74,4.67,2.37s2.92-2.7,3.16-4.36a124.31,124.31,0,0,0,1.31-16c.05-3.42,1.44-4.9,4.61-4.9q28.6,0,57.21.09c3,0,5,1.23,7.06,3.89,1.61,2.12,2.55,4.46,4,6.51,3.42,4.8,8.41,8.44,10.53,14.25.15.42,1,.69,1.57.82,3.69.83,6.17-1.69,4.71-5.58-2.09-5.62-2.24-11.37-2.8-17.17-.34-3.54.84-4.49,4.07-4.11,3.93.45,7.44-.09,10.84-2.77,1.9-1.5,3.78-3.94,5.43-4.46,4-1.26,5-5.08,6-7.36,2.13-4.63,2.76-10.23,2.83-15.45.27-20.69.09-41.39,0-62.08,0-7-1.72-13.34-6.54-18.76a26.86,26.86,0,0,0-19.2-9.48c-9.94-.48-19.92-.14-29.88-.18-25.3-.11-50.6-.33-75.91-.34-24.42,0-48.84.39-73.26.2-9.42-.07-18.45-.33-26.5,6.05C25.76,17.33,25.57,18.25,27.16,20.74ZM272.27,237h0c0-2.49,0-5,0-7.47,0-7.19-6.47-14.19-13.67-14.68a75.93,75.93,0,0,0-7.84,0c-7.77.32-6.5-1.88-5.15-7.57.22-.93,1.52-1.57,2.14-2.46.74-1.07,2-2.39,1.83-3.41-.86-5.31,1.85-10.74-3-16.06-5.05-5.53-11.58-9.66-18.94-8.32-4.87.88-8.28,4-11.35,7.35-6.08,6.73-6.49,12.48-2,20.45a23,23,0,0,1,2.54,5.35c.84,3.29-.38,4.65-3.78,4.68-2.24,0-4.56-.48-6.71,0-4.34.87-9.22.8-12.39,4.54-1.25,1.49-1.59,3.76-2.31,5.68-3.37,9-4.28,18.08.63,26.7,1.62,2.85,4.72,5,7.54,7s6.54,2.88,9.44,4.86c5,3.44,10.84,3.72,16.38,4a79,79,0,0,0,19.58-1.57c4.7-1,9.14-3.57,13.44-5.91a39.29,39.29,0,0,0,7.6-5.87c3.64-3.39,7.58-6.72,6.06-12.7A19.13,19.13,0,0,1,272.27,237Zm-176.33.55.34,0a32.56,32.56,0,0,0,0,5.59c.56,3.09.54,7,2.44,9a68.22,68.22,0,0,0,13.58,10.15c7.56,4.53,16.24,5.07,24.77,5.35a42.9,42.9,0,0,0,11.75-1.44c4.83-1.22,9.84-2.51,14.12-4.93,5-2.84,9.38-6.9,13.94-10.53a3.46,3.46,0,0,0,.94-2.3c.39-6.69,1.06-13.39.9-20.07-.14-5.64-3.83-9.65-8.82-11.61-3.57-1.39-7.7-1.3-11.55-2-1.84-.33-4.84-.59-5.15-1.57-.62-1.93.12-4.38.59-6.55.87-4.05,3.08-8.18,2.65-12-.51-4.63-2.09-9.28-6.14-13-2.63-2.4-5.51-2.4-8.22-3.61-4.2-1.87-13-.34-16.15,3a27.23,27.23,0,0,0-6.23,9.6c-2.39,6.63.37,11.38,2.27,16.83a8.52,8.52,0,0,1,.14,5.63c-.44,1-2.83,1.43-4.4,1.63-2.09.26-4.23,0-6.35.05-5.7.23-12.78,4.29-14.15,10.62C96.4,229.33,96.35,233.47,95.94,237.53Zm-92.85.23H3c0,3.36-.24,6.75.09,10.08.18,1.78.87,4,2.14,5.08a85.53,85.53,0,0,0,9.69,6.53,57.69,57.69,0,0,0,18.5,7.29c8.65,1.93,16.78-.14,25.12-.66a5.63,5.63,0,0,0,2-.87c3.79-2,7.36-4.9,11.4-6,5.51-1.45,8.23-5.72,11.72-9.26a6.57,6.57,0,0,0,1.75-4.69c-.79-7.2,1.16-14.54-2.09-21.68-1.89-4.15-3-6.61-7.54-7.25s-9.27-1-13.92-1.21c-2.53-.12-4-1.28-3.53-3.63a23.18,23.18,0,0,1,2.84-7.11c3.28-5.43,3.65-10.81.17-16.15-1.44-2.21-3.68-3.9-5.2-6.07-3.43-4.91-9-4.75-13.78-5.16-3.29-.28-7.27,1.69-10.12,3.77-2.66,1.93-4.24,5.34-6.27,8.12a1.26,1.26,0,0,0-.21.71c.06,4.34,0,8.68.29,13,.05.89,1.44,1.63,1.82,2.59,1,2.55,1.78,5.18,2.65,7.78a60.25,60.25,0,0,1-6,1.75,20.84,20.84,0,0,1-4.1,0C8.63,214.67,3,220.38,3.08,232.16,3.1,234,3.09,235.89,3.09,237.76Z"/><path d="M27.16,20.74c-1.59-2.49-1.4-3.41.91-5.24,8-6.38,17.08-6.12,26.5-6.05,24.42.19,48.84-.21,73.26-.2,25.31,0,50.61.23,75.91.34,10,0,19.94-.3,29.88.18a26.86,26.86,0,0,1,19.2,9.48c4.82,5.42,6.52,11.78,6.54,18.76.05,20.69.23,41.39,0,62.08-.07,5.22-.7,10.82-2.83,15.45-1,2.28-2,6.1-6,7.36-1.65.52-3.53,3-5.43,4.46-3.4,2.68-6.91,3.22-10.84,2.77-3.23-.38-4.41.57-4.07,4.11.56,5.8.71,11.55,2.8,17.17,1.46,3.89-1,6.41-4.71,5.58-.57-.13-1.42-.4-1.57-.82-2.12-5.81-7.11-9.45-10.53-14.25-1.46-2-2.4-4.39-4-6.51-2-2.66-4.07-3.88-7.06-3.89q-28.61-.11-57.21-.09c-3.17,0-4.56,1.48-4.61,4.9a124.31,124.31,0,0,1-1.31,16c-.24,1.66-1.76,4-3.16,4.36s-3.81-1-4.67-2.37a68.81,68.81,0,0,1-6.18-11.89c-1.93-5-9.77-11-15.19-11-12.71,0-25.43.07-38.14-.06a9.41,9.41,0,0,0-7.63,3.1c-6.2,6.79-12.45,13.55-18.8,20.2A9.17,9.17,0,0,1,44,156.91c-2.26.62-3.63-.3-3.34-2.92.6-5.56,1.08-11.14,1.76-16.69.71-5.71.16-6.31-5.3-7.3a14.92,14.92,0,0,1-6.33-2.92c-7.13-5.67-13-11.7-12.89-22.17.28-21.16-.51-42.33-.7-63.49a85.49,85.49,0,0,1,1.12-12.14c.15-1.13,1.09-2.17,1.75-3.2.54-.82,1.77-1.61,1.71-2.34C21.49,19.7,24.07,20.13,27.16,20.74ZM64.83,127.35l-.42-1.27c3-.7,6-1.94,9-2,11.71-.22,23.43-.07,35.14-.06,3.49,0,7-.13,10.47,0,3.08.12,5.53.58,6.21,4.8.4,2.47,3.17,4.86,5.38,6.65,1.93,1.54,4.8-.11,5.39-2.73a19.18,19.18,0,0,0,.21-3.72c.09-3.65,1.65-5.21,5.25-5.2,20.93.06,41.86.16,62.8.14a13.64,13.64,0,0,1,8.71,2.53c2.35,1.74,5.81,3.51,8.16.82,2.72-3.13,5.84-3.21,9.34-3.45,3.34-.23,6.86-.38,9.91-1.57s6.81-3,8.26-5.68a28.62,28.62,0,0,0,3.1-12.82c.33-18.43.17-36.88.15-55.32,0-5.11.07-10.23-.26-15.32-.71-10.55-8.27-16.39-18.37-16.48-28.78-.25-57.56-.06-86.34-.07-35.51,0-71-.15-106.54.14-3.43,0-7.53,2-10.07,4.42-2.35,2.22-3.53,6.1-4.29,9.46a60.67,60.67,0,0,0-1.28,12.91c-.1,20.19-.15,40.38.14,60.56.06,3.94.87,8.37,2.84,11.67,3.09,5.18,8.49,7.32,14.66,7.89,7.14.66,7.53,1.42,7.79,8.58.13,3.37,1.73,4.55,4.87,3.3,2.37-1,5.28-1.05,6-4.64C61.3,129.52,63.5,128.52,64.83,127.35Z"/><path d="M272.27,237a19.13,19.13,0,0,0,.05,4.48c1.52,6-2.42,9.31-6.06,12.7a39.29,39.29,0,0,1-7.6,5.87c-4.3,2.34-8.74,4.93-13.44,5.91a79,79,0,0,1-19.58,1.57c-5.54-.26-11.35-.54-16.38-4-2.9-2-6.53-2.89-9.44-4.86s-5.92-4.11-7.54-7c-4.91-8.62-4-17.71-.63-26.7.72-1.92,1.06-4.19,2.31-5.68,3.17-3.74,8-3.67,12.39-4.54,2.15-.44,4.47.06,6.71,0,3.4,0,4.62-1.39,3.78-4.68a23,23,0,0,0-2.54-5.35c-4.47-8-4.06-13.72,2-20.45,3.07-3.39,6.48-6.47,11.35-7.35,7.36-1.34,13.89,2.79,18.94,8.32,4.86,5.32,2.15,10.75,3,16.06.16,1-1.09,2.34-1.83,3.41-.62.89-1.92,1.53-2.14,2.46-1.35,5.69-2.62,7.89,5.15,7.57a75.93,75.93,0,0,1,7.84,0c7.2.49,13.66,7.49,13.67,14.68,0,2.49,0,5,0,7.47ZM231.1,222.1c-8.35,0-16.7,0-25,0-5.91,0-8.73,2.9-8.74,8.65,0,3.74.44,7.53-.07,11.2-.65,4.7,1.41,7.76,5.08,9.78a8.42,8.42,0,0,0,5.9.6c.93-.27,1.48-2.81,1.67-4.38.23-1.95-.19-4-.16-6,0-2.46,1.12-4,3.88-3.91,2.61.12,3.34,1.84,3.37,4.05.05,3.74.05,7.48,0,11.22,0,3.48,1.72,6.23,5,6.42a141.49,141.49,0,0,0,18.18-.39c3.18-.23,4.61-2.48,4.45-5.79-.18-3.61,0-7.23-.14-10.84-.14-2.94.94-4.58,4-4.5,2.88.08,5.23.88,5.2,4.43,0,2.24-.15,4.5,0,6.73.24,3,2.44,3.95,5,2.3,4-2.6,6.1-5.93,5.6-10.89-.33-3.34,0-6.73-.09-10.09-.11-6.74-1.93-8.57-8.78-8.63C247.3,222.05,239.2,222.11,231.1,222.1Zm-12-25.9c0,7.53,4.53,11.8,12.31,11.7,7-.09,12-5.14,11.86-12.09s-4.88-11.61-12.13-11.59C223.1,184.25,219.07,188.25,219.11,196.2Z"/><path d="M95.94,237.53c.41-4.06.46-8.2,1.32-12.16,1.37-6.33,8.45-10.39,14.15-10.62,2.12-.08,4.26.21,6.35-.05,1.57-.2,4-.62,4.4-1.63a8.52,8.52,0,0,0-.14-5.63c-1.9-5.45-4.66-10.2-2.27-16.83A27.23,27.23,0,0,1,126,181c3.13-3.37,12-4.9,16.15-3,2.71,1.21,5.59,1.21,8.22,3.61,4.05,3.7,5.63,8.35,6.14,13,.43,3.86-1.78,8-2.65,12-.47,2.17-1.21,4.62-.59,6.55.31,1,3.31,1.24,5.15,1.57,3.85.71,8,.62,11.55,2,5,2,8.68,6,8.82,11.61.16,6.68-.51,13.38-.9,20.07a3.46,3.46,0,0,1-.94,2.3c-4.56,3.63-8.91,7.69-13.94,10.53-4.28,2.42-9.29,3.71-14.12,4.93a42.9,42.9,0,0,1-11.75,1.44c-8.53-.28-17.21-.82-24.77-5.35a68.22,68.22,0,0,1-13.58-10.15c-1.9-1.93-1.88-5.87-2.44-9a32.56,32.56,0,0,1,0-5.59ZM138,222.13v0c-8.73,0-17.45-.06-26.17,0-5.2.05-8.31,3.23-8.44,8.42-.09,3.24.22,6.52-.17,9.71-.71,5.92,2.19,9.76,6.84,12.53a6.24,6.24,0,0,0,4.55.47c.78-.25,1.33-2.2,1.42-3.42.17-2.47-.06-5-.09-7.46,0-3.35,1.3-4.46,4.56-3.92,2.62.43,3.48,2.26,3.54,4.55.09,3.73,0,7.47,0,11.21,0,3.28,1.54,5.71,5,5.82,5.47.18,10.95,0,16.42-.13,3.62-.12,5.31-2.42,5.57-5.83.14-1.85,0-3.73,0-5.6a58.22,58.22,0,0,1,.18-6.34c.38-3.2,2.76-3.86,5.48-3.71,2.95.17,2.7,2.28,2.61,4.36a26.31,26.31,0,0,0,.08,6.7c.25,1.16,1.94,2.87,2.93,2.84,3.92-.12,9.36-6.48,9.46-10.71q.12-5.4-.16-10.82c-.28-5.65-3.35-8.63-9-8.68C154.46,222.07,146.24,222.13,138,222.13Zm11.49-25.76c.08-5.82-5.88-12.16-11.47-12.2s-12.12,6-12.26,11.45c-.15,5.75,6.07,12.13,11.9,12.23C142.88,207.94,149.44,201.57,149.51,196.37Z"/><path d="M3.09,237.76c0-1.87,0-3.74,0-5.6C3,220.38,8.63,214.67,20.46,214.72a20.84,20.84,0,0,0,4.1,0,60.25,60.25,0,0,0,6-1.75c-.87-2.6-1.65-5.23-2.65-7.78-.38-1-1.77-1.7-1.82-2.59-.27-4.32-.23-8.66-.29-13a1.26,1.26,0,0,1,.21-.71c2-2.78,3.61-6.19,6.27-8.12,2.85-2.08,6.83-4.05,10.12-3.77,4.77.41,10.35.25,13.78,5.16,1.52,2.17,3.76,3.86,5.2,6.07,3.48,5.34,3.11,10.72-.17,16.15a23.18,23.18,0,0,0-2.84,7.11c-.49,2.35,1,3.51,3.53,3.63,4.65.24,9.31.57,13.92,1.21s5.65,3.1,7.54,7.25c3.25,7.14,1.3,14.48,2.09,21.68A6.57,6.57,0,0,1,83.69,250c-3.49,3.54-6.21,7.81-11.72,9.26-4,1.07-7.61,3.93-11.4,6a5.63,5.63,0,0,1-2,.87c-8.34.52-16.47,2.59-25.12.66a57.69,57.69,0,0,1-18.5-7.29,85.53,85.53,0,0,1-9.69-6.53c-1.27-1.06-2-3.3-2.14-5.08-.33-3.33-.09-6.72-.09-10.08Zm41.05-15.68v0c-8.48,0-16.95-.07-25.42,0-5.49.07-7.95,2.48-8.28,7.94-.15,2.49.1,5-.12,7.48-.49,5.75-.46,11.26,5.43,14.54A7.07,7.07,0,0,0,20,253.27c.77-.13,1.64-2,1.74-3.2.24-2.59-.13-5.24,0-7.84.22-3.35,2.72-3.73,5.41-3.73s3.67,1.48,3.6,4.06a103.45,103.45,0,0,0,.06,12.7c.16,1.56,1.93,4.16,3.07,4.22a149.82,149.82,0,0,0,19.65-.18c3.33-.27,4.92-3,4.8-6.54s-.07-7-.07-10.46c0-2.47,1-4.1,3.73-4.13s3.55,1.88,3.67,4.19,0,4.49.14,6.72,1.35,3.31,3.76,2.73c4.52-1.09,9.22-5.57,8.56-10.7-.42-3.18-.07-6.47-.08-9.71,0-5.66-3.6-9.3-9.25-9.32C60.59,222.06,52.36,222.08,44.14,222.08Zm12-26c-.13-7.72-4.88-12.09-13-11.94-6.54.12-11.26,5.18-11.16,12,.1,7.31,4.87,11.85,12.34,11.73C52.06,207.74,56.29,203.53,56.16,196.11Z"/><path class="cls-1" d="M64.83,127.35c-1.33,1.17-3.53,2.17-3.81,3.56-.73,3.59-3.64,3.69-6,4.64-3.14,1.25-4.74.07-4.87-3.3-.26-7.16-.65-7.92-7.79-8.58-6.17-.57-11.57-2.71-14.66-7.89-2-3.3-2.78-7.73-2.84-11.67-.29-20.18-.24-40.37-.14-60.56A60.67,60.67,0,0,1,26,30.64c.76-3.36,1.94-7.24,4.29-9.46,2.54-2.4,6.64-4.39,10.07-4.42,35.52-.29,71-.14,106.54-.14,28.78,0,57.56-.18,86.34.07,10.1.09,17.66,5.93,18.37,16.48.33,5.09.25,10.21.26,15.32,0,18.44.18,36.89-.15,55.32a28.62,28.62,0,0,1-3.1,12.82c-1.45,2.65-5.17,4.48-8.26,5.68s-6.57,1.34-9.91,1.57c-3.5.24-6.62.32-9.34,3.45-2.35,2.69-5.81.92-8.16-.82a13.64,13.64,0,0,0-8.71-2.53c-20.94,0-41.87-.08-62.8-.14-3.6,0-5.16,1.55-5.25,5.2a19.18,19.18,0,0,1-.21,3.72c-.59,2.62-3.46,4.27-5.39,2.73-2.21-1.79-5-4.18-5.38-6.65-.68-4.22-3.13-4.68-6.21-4.8-3.48-.15-7,0-10.47,0-11.71,0-23.43-.16-35.14.06-3,.06-6,1.3-9,2Zm-4-47.07c-1.22,4.11.84,8.85-4.12,11.15a6.21,6.21,0,0,0,1,2.63c2.29,2.44,5,4.53,7.09,7.14s3.43,3.41,5.83.13c.89-1.21,3.75-1.4,5.66-1.27.88.07,2.18,1.94,2.34,3.12.8,5.72,1,6,6.92,6l4.86,0c5.07,0,5.52-.4,6.2-5.29.6-4.28,5-6.24,7.73-3,2.93,3.44,4.49,3.74,6.47-.38.18-.38.84-.51,1.2-.84,5.76-5.32,5.76-5.33,3.85-13.14-.06-.24-.12-.48-.17-.73-.9-4.3-.07-5.25,4.21-4.83.62.06,1.24.14,1.85.25,2.51.46,3.36-.6,3.22-3.08a87.19,87.19,0,0,1,0-9.7c.16-2.6-.72-3.84-3.32-4.4-6.53-1.38-7.18-3.09-4.63-9.32.57-1.39.38-4.16-.56-4.91-3.31-2.65-4.78-8-10.36-7.45a3.94,3.94,0,0,0-1.3.7c-5,3-7.22,2-8.52-3.84-.61-2.71-1.89-4.19-4.87-3.94a83.37,83.37,0,0,1-8.93.39c-3.08-.09-3.81,1.25-3.64,4.09.26,4.46-1.8,5.73-6.1,4.17a13.11,13.11,0,0,0-4.28-1.15,6.07,6.07,0,0,0-3.66,1.32c-2.34,2-4.45,4.24-6.6,6.43a23.59,23.59,0,0,0-1.79,2.3l1.29-.1c.87,1.42,2.06,2.75,2.54,4.29,1.31,4.21-.75,6.24-4.84,6.87A4.79,4.79,0,0,0,51,68.77c-.15,3.11-.12,6.23,0,9.33.08,2.52,1.54,3.52,4,3.11C56.83,80.91,58.63,80.63,60.79,80.28Zm161.35-11,1,0c0-2.72-3.17-4.39-6-3.13a6.94,6.94,0,0,1-9.49-4c-.42-1.13-2-2.54-3-2.55a4.92,4.92,0,0,0-3.78,2.11c-.89,1.76-.29,4.33-3.57,4.11a40.63,40.63,0,0,0-6.52.23,10.78,10.78,0,0,0-4.51,1c-1.85,1.15-1.28,2.72-.21,4.48,1.8,3-.74,8.09-3.93,9.38a4.62,4.62,0,0,0-2.5,3.41,4.82,4.82,0,0,0,2.46,3.53c3.26,1.51,5.75,6.64,3.9,9.49-1.06,1.64-2,2.73-.07,4.36,1.59,1.36,2.69,2.49,5.1,1,3.41-2.14,8.07.09,9.68,3.62a5.29,5.29,0,0,0,3.86,2.58c1.05.07,2.71-1.48,3.22-2.69,1.23-2.94,6.5-5.35,9.33-3.59,1.8,1.11,3.06,1.23,4.6-.25s1.53-2.74.84-4.88c-.76-2.38-.34-5.3.2-7.85.18-.82,2.63-1,3.59-1.86,1.22-1.16,2.58-2.74,2.72-4.25.08-.81-2.2-2.44-3.58-2.64-2.29-.33-3.41-1.07-3.36-3.44C222.18,74.75,222.14,72,222.14,69.33ZM136.05,58.64c.34,1.69.73,3.13.88,4.58a11.1,11.1,0,0,1,0,4.3c-1.41,4.54.34,6.61,5.09,5.73,5.69-1,7.44-.07,10.19,4.68a6.05,6.05,0,0,0,4.08,2.4c.61.08,1.56-2.19,2.29-3.43.65-1.08,1-2.92,1.87-3.17a16.86,16.86,0,0,1,6.93-.74c6.17.86,6.94,0,5.7-6.18a16,16,0,0,1,.71-7.62c.22-.71,2.91-.55,4.4-1,.82-.26,2.11-1,2.11-1.5A6.21,6.21,0,0,0,179.22,53a6.39,6.39,0,0,0-3.28-1.61c-2.28-.63-3.4-2-3.17-4.35.19-1.83.81-3.66.72-5.47a10.69,10.69,0,0,0-1.4-4.82c-1.09-1.79-2.55-1.08-4.14-.09-3,1.88-8.53-.11-9.34-2.92-.37-1.31-1.86-3.48-2.34-3.35-1.69.44-3.77,1.35-4.59,2.74-2.3,3.94-6.31,5.37-10.25,3.38a4.24,4.24,0,0,0-3.6.4c-1.32.86-2.85,1.82-1.54,4.2,2.6,4.75,1.2,8.12-3.58,10.77a5.41,5.41,0,0,0-2.33,3.35c-.15.85.86,2.33,1.75,2.87S134.53,58.45,136.05,58.64Z"/><path class="cls-1" d="M231.1,222.1c8.1,0,16.2,0,24.3,0,6.85.06,8.67,1.89,8.78,8.63.06,3.36-.24,6.75.09,10.09.5,5-1.64,8.29-5.6,10.89-2.51,1.65-4.71.75-5-2.3-.17-2.23,0-4.49,0-6.73,0-3.55-2.32-4.35-5.2-4.43-3.05-.08-4.13,1.56-4,4.5.17,3.61,0,7.23.14,10.84.16,3.31-1.27,5.56-4.45,5.79a141.49,141.49,0,0,1-18.18.39c-3.29-.19-5-2.94-5-6.42,0-3.74,0-7.48,0-11.22,0-2.21-.76-3.93-3.37-4.05-2.76-.13-3.84,1.45-3.88,3.91,0,2,.39,4,.16,6-.19,1.57-.74,4.11-1.67,4.38a8.42,8.42,0,0,1-5.9-.6c-3.67-2-5.73-5.08-5.08-9.78.51-3.67.06-7.46.07-11.2,0-5.75,2.83-8.61,8.74-8.65C214.4,222.05,222.75,222.1,231.1,222.1Z"/><path class="cls-1" d="M219.11,196.2c0-7.95,4-11.95,12-12,7.25,0,12,4.52,12.13,11.59s-4.83,12-11.86,12.09C223.64,208,219.15,203.73,219.11,196.2Z"/><path class="cls-1" d="M138,222.13c8.22,0,16.44-.06,24.66,0,5.66.05,8.73,3,9,8.68q.28,5.41.16,10.82c-.1,4.23-5.54,10.59-9.46,10.71-1,0-2.68-1.68-2.93-2.84a26.31,26.31,0,0,1-.08-6.7c.09-2.08.34-4.19-2.61-4.36-2.72-.15-5.1.51-5.48,3.71a58.22,58.22,0,0,0-.18,6.34c0,1.87.11,3.75,0,5.6-.26,3.41-2,5.71-5.57,5.83-5.47.17-10.95.31-16.42.13-3.47-.11-5-2.54-5-5.82-.06-3.74.07-7.48,0-11.21-.06-2.29-.92-4.12-3.54-4.55-3.26-.54-4.6.57-4.56,3.92,0,2.49.26,5,.09,7.46-.09,1.22-.64,3.17-1.42,3.42a6.24,6.24,0,0,1-4.55-.47c-4.65-2.77-7.55-6.61-6.84-12.53.39-3.19.08-6.47.17-9.71.13-5.19,3.24-8.37,8.44-8.42,8.72-.08,17.44,0,26.17,0Z"/><path class="cls-1" d="M149.51,196.37c-.07,5.2-6.63,11.57-11.83,11.48-5.83-.1-12.05-6.48-11.9-12.23.14-5.45,6.61-11.49,12.26-11.45S149.59,190.55,149.51,196.37Z"/><path class="cls-1" d="M44.14,222.08c8.22,0,16.45,0,24.67,0,5.65,0,9.24,3.66,9.25,9.32,0,3.24-.34,6.53.08,9.71.66,5.13-4,9.61-8.56,10.7-2.41.58-3.63-.37-3.76-2.73s0-4.48-.14-6.72-.84-4.23-3.67-4.19-3.72,1.66-3.73,4.13c0,3.48,0,7,.07,10.46s-1.47,6.27-4.8,6.54a149.82,149.82,0,0,1-19.65.18c-1.14-.06-2.91-2.66-3.07-4.22a103.45,103.45,0,0,1-.06-12.7c.07-2.58-.86-4.05-3.6-4.06s-5.19.38-5.41,3.73c-.17,2.6.2,5.25,0,7.84-.1,1.17-1,3.07-1.74,3.2a7.07,7.07,0,0,1-4.23-1.16c-5.89-3.28-5.92-8.79-5.43-14.54.22-2.48,0-5,.12-7.48.33-5.46,2.79-7.87,8.28-7.94,8.47-.09,16.94,0,25.42,0Z"/><path class="cls-1" d="M56.16,196.11c.13,7.42-4.1,11.63-11.81,11.76-7.47.12-12.24-4.42-12.34-11.73-.1-6.79,4.62-11.85,11.16-12C51.28,184,56,188.39,56.16,196.11Z"/><path d="M60.79,80.28c-2.16.35-4,.63-5.75.93-2.47.41-3.93-.59-4-3.11-.11-3.1-.14-6.22,0-9.33a4.79,4.79,0,0,1,4.33-4.87c4.09-.63,6.15-2.66,4.84-6.87-.48-1.54-1.67-2.87-2.54-4.29l-1.29.1a23.59,23.59,0,0,1,1.79-2.3c2.15-2.19,4.26-4.44,6.6-6.43a6.07,6.07,0,0,1,3.66-1.32,13.11,13.11,0,0,1,4.28,1.15c4.3,1.56,6.36.29,6.1-4.17-.17-2.84.56-4.18,3.64-4.09a83.37,83.37,0,0,0,8.93-.39c3-.25,4.26,1.23,4.87,3.94,1.3,5.84,3.54,6.8,8.52,3.84a3.94,3.94,0,0,1,1.3-.7c5.58-.59,7.05,4.8,10.36,7.45.94.75,1.13,3.52.56,4.91-2.55,6.23-1.9,7.94,4.63,9.32,2.6.56,3.48,1.8,3.32,4.4a87.19,87.19,0,0,0,0,9.7c.14,2.48-.71,3.54-3.22,3.08-.61-.11-1.23-.19-1.85-.25-4.28-.42-5.11.53-4.21,4.83,0,.25.11.49.17.73,1.91,7.81,1.91,7.82-3.85,13.14-.36.33-1,.46-1.2.84-2,4.12-3.54,3.82-6.47.38-2.78-3.26-7.13-1.3-7.73,3-.68,4.89-1.13,5.27-6.2,5.29l-4.86,0c-6,0-6.12-.29-6.92-6-.16-1.18-1.46-3.05-2.34-3.12-1.91-.13-4.77.06-5.66,1.27-2.4,3.28-3.68,2.56-5.83-.13S60,96.5,57.7,94.06a6.21,6.21,0,0,1-1-2.63C61.63,89.13,59.57,84.39,60.79,80.28Zm45.63,15.33c5.41.32,6.37-1.45,4-6.34-.68-1.37-1-3.57-.38-4.77,1.13-2.13,3.34-3.65,2.72-6.58-.06-.31,1.4-1.33,2.18-1.35,2.28-.07,4-.68,4.19-3.22S118.56,68.87,116,68c-4.28-1.42-4.67-5.85-6.82-8.91-.29-.41.2-1.72.71-2.26,1.94-2.07,2.08-4.39.53-6.47-1.75-2.34-4.1-1.28-6.47-.61-1.71.49-4.12.73-5.46-.12-2.48-1.58-4.23-4.27-6.62-6.06a11.22,11.22,0,0,0-5.71-2.32c-2.44-.13-3.28,1.73-2.79,4.18.12.58-.32,1.78-.73,1.9-4.26,1.27-8,5.7-13.13,2-1.66-1.2-4.17-1.45-5,1.08a16.46,16.46,0,0,0-1,7.64c1.29,7.39,1.53,7.42-5.09,10.18-2.63,1.1-2.7,3.28-2.24,5.26.27,1.15,1.84,2.09,3,2.92,1.33,1,3.67,1.46,4.09,2.67a35.65,35.65,0,0,1,2.19,10.66c.09,4,.35,4.51,4.54,4.75a38.15,38.15,0,0,1,9.76,1.88c1.36.45,3.14,2.39,3.12,3.64,0,2.7.68,3.93,3.4,4.12s5.21,0,5.93-3.52a6,6,0,0,1,5.81-5C100.74,95.43,103.58,95.61,106.42,95.61Z"/><path d="M222.14,69.33c0,2.71,0,5.42,0,8.13-.05,2.37,1.07,3.11,3.36,3.44,1.38.2,3.66,1.83,3.58,2.64-.14,1.51-1.5,3.09-2.72,4.25-1,.91-3.41,1-3.59,1.86-.54,2.55-1,5.47-.2,7.85.69,2.14.72,3.38-.84,4.88s-2.8,1.36-4.6.25c-2.83-1.76-8.1.65-9.33,3.59-.51,1.21-2.17,2.76-3.22,2.69a5.29,5.29,0,0,1-3.86-2.58c-1.61-3.53-6.27-5.76-9.68-3.62-2.41,1.51-3.51.38-5.1-1-1.91-1.63-1-2.72.07-4.36,1.85-2.85-.64-8-3.9-9.49a4.82,4.82,0,0,1-2.46-3.53,4.62,4.62,0,0,1,2.5-3.41c3.19-1.29,5.73-6.42,3.93-9.38-1.07-1.76-1.64-3.33.21-4.48a10.78,10.78,0,0,1,4.51-1,40.63,40.63,0,0,1,6.52-.23c3.28.22,2.68-2.35,3.57-4.11a4.92,4.92,0,0,1,3.78-2.11c1,0,2.62,1.42,3,2.55a6.94,6.94,0,0,0,9.49,4c2.82-1.26,6,.41,6,3.13Zm-16.91.32C195.17,69.73,189.88,75.43,190,85a14.15,14.15,0,0,0,15.27,14.33c3.34-.24,7.52-1.58,9.59-3.93,4-4.51,4.32-10.64,4-16.59C218.71,74.85,210.87,69.55,205.23,69.65Z"/><path d="M136.05,58.64c-1.52-.19-3,0-3.92-.59s-1.9-2-1.75-2.87a5.41,5.41,0,0,1,2.33-3.35c4.78-2.65,6.18-6,3.58-10.77-1.31-2.38.22-3.34,1.54-4.2a4.24,4.24,0,0,1,3.6-.4c3.94,2,7.95.56,10.25-3.38.82-1.39,2.9-2.3,4.59-2.74.48-.13,2,2,2.34,3.35.81,2.81,6.33,4.8,9.34,2.92,1.59-1,3.05-1.7,4.14.09a10.69,10.69,0,0,1,1.4,4.82c.09,1.81-.53,3.64-.72,5.47-.23,2.34.89,3.72,3.17,4.35A6.39,6.39,0,0,1,179.22,53a6.21,6.21,0,0,1,1.07,3.73c0,.52-1.29,1.24-2.11,1.5-1.49.46-4.18.3-4.4,1a16,16,0,0,0-.71,7.62c1.24,6.13.47,7-5.7,6.18a16.86,16.86,0,0,0-6.93.74c-.86.25-1.22,2.09-1.87,3.17-.73,1.24-1.68,3.51-2.29,3.43a6.05,6.05,0,0,1-4.08-2.4c-2.75-4.75-4.5-5.72-10.19-4.68-4.75.88-6.5-1.19-5.09-5.73a11.1,11.1,0,0,0,0-4.3C136.78,61.77,136.39,60.33,136.05,58.64Zm33.7-4.27A12,12,0,0,1,169.8,51C171,47,168,44.32,165.57,43.35a31.48,31.48,0,0,0-13.64-2.25,12.09,12.09,0,0,0-10,6.78c-3.37,6.21-1.2,18.12,5.39,20.51,3.37,1.21,7.36,1.19,11,1,2.22-.13,4.54-1.44,6.47-2.73A11,11,0,0,0,169.75,54.37Z"/><path class="cls-1" d="M106.42,95.61c-2.84,0-5.68-.18-8.5,0a6,6,0,0,0-5.81,5c-.72,3.47-3.09,3.7-5.93,3.52s-3.42-1.42-3.4-4.12c0-1.25-1.76-3.19-3.12-3.64A38.15,38.15,0,0,0,69.9,94.5c-4.19-.24-4.45-.73-4.54-4.75a35.65,35.65,0,0,0-2.19-10.66c-.42-1.21-2.76-1.68-4.09-2.67-1.13-.83-2.7-1.77-3-2.92-.46-2-.39-4.16,2.24-5.26,6.62-2.76,6.38-2.79,5.09-10.18a16.46,16.46,0,0,1,1-7.64c.84-2.53,3.35-2.28,5-1.08,5.13,3.71,8.87-.72,13.13-2,.41-.12.85-1.32.73-1.9-.49-2.45.35-4.31,2.79-4.18a11.22,11.22,0,0,1,5.71,2.32c2.39,1.79,4.14,4.48,6.62,6.06,1.34.85,3.75.61,5.46.12,2.37-.67,4.72-1.73,6.47.61,1.55,2.08,1.41,4.4-.53,6.47-.51.54-1,1.85-.71,2.26,2.15,3.06,2.54,7.49,6.82,8.91,2.59.85,3.28,2.92,3.11,5.33s-1.91,3.15-4.19,3.22c-.78,0-2.24,1-2.18,1.35.62,2.93-1.59,4.45-2.72,6.58-.65,1.2-.3,3.4.38,4.77C112.79,94.16,111.83,95.93,106.42,95.61ZM88.16,65.06c2.77.27,6.24,0,7.28,4.26A8.91,8.91,0,0,1,87,80.68a7.24,7.24,0,0,0-2.57.28c-.71.3-1.77,1.19-1.68,1.6a3.23,3.23,0,0,0,1.65,2.1c5,1.86,11.12-1.94,13.55-6.25,1.75-3.11,1.91-5.93.69-9.7C96.57,62.27,90,57.78,84.05,61a23.24,23.24,0,0,0-8.29,8.53c-1.11,1.87-.42,5.35.51,7.69.65,1.62,3.08,2.52,4.71,3.75a35,35,0,0,0,0-5.79C79.7,67.43,81.8,65.08,88.16,65.06Z"/><path class="cls-1" d="M205.23,69.65c5.64-.1,13.48,5.2,13.67,9.17.28,6-.07,12.08-4,16.59-2.07,2.35-6.25,3.69-9.59,3.93A14.15,14.15,0,0,1,190,85C189.88,75.43,195.17,69.73,205.23,69.65Z"/><path class="cls-1" d="M169.75,54.37a11,11,0,0,1-4.94,12.26c-1.93,1.29-4.25,2.6-6.47,2.73-3.66.22-7.65.24-11-1-6.59-2.39-8.76-14.3-5.39-20.51a12.09,12.09,0,0,1,10-6.78,31.48,31.48,0,0,1,13.64,2.25C168,44.32,171,47,169.8,51A12,12,0,0,0,169.75,54.37Z"/><path d="M88.16,65.06c-6.36,0-8.46,2.37-7.2,10.14A35,35,0,0,1,81,81c-1.63-1.23-4.06-2.13-4.71-3.75-.93-2.34-1.62-5.82-.51-7.69A23.24,23.24,0,0,1,84.05,61c6-3.24,12.52,1.25,14.63,7.69,1.22,3.77,1.06,6.59-.69,9.7-2.43,4.31-8.51,8.11-13.55,6.25a3.23,3.23,0,0,1-1.65-2.1c-.09-.41,1-1.3,1.68-1.6A7.24,7.24,0,0,1,87,80.68a8.91,8.91,0,0,0,8.4-11.36C94.4,65.09,90.93,65.33,88.16,65.06Z"/></g></g></svg>