<svg xmlns="http://www.w3.org/2000/svg" viewBox="0 0 127.5 144"><defs><style>.cls-1{fill:#fff;}</style></defs><g id="Layer_2" data-name="Layer 2"><g fill='#794b1a' id="Layer_1-2" data-name="Layer 1"><path class="cls-1" d="M0,0H127.5V144H0ZM112.34,133.46l.92-1.25a17.42,17.42,0,0,0-.93-2.41c-4.72-8.5-5.64-17.73-4.69-27.1A46.5,46.5,0,0,1,111.25,90c1.36-3.34,3.73-6.25,5.54-9.42,7.57-13.28,6.58-26.93.94-40.37C113.31,29.67,105.89,21,95.57,16c-7-3.42-14.85-5.24-22.46-7.22C55.3,4.12,39.56,9.05,26.5,21.14c-10.73,9.93-14.08,23-11.81,37.42,1.09,6.85.79,13.2-4.19,18.75A33.64,33.64,0,0,0,6,84.51c-2.1,4.13-.15,9.45,3.91,9.68,4.74.27,3.53,2.8,3.21,5.56a8.31,8.31,0,0,0,.59,4.57c2.34,4.43,5.94,8,5.4,13.89-.67,7.41,4.42,11.37,11.91,10.38,2.11-.27,4.19-.72,6.3-.93,6.68-.66,13.45-1.54,16.87,6.42a1.89,1.89,0,0,0,1.78.51,2,2,0,0,0,.91-1.74,11.47,11.47,0,0,0-1.71-3.64c-3.18-4.27-7.86-5.47-12.81-5.4-4.47.07-8.92.89-13.39,1.12-5.08.26-8.19-2.74-6.47-7.43,2.34-6.4-3.75-9.45-4.43-14.46-.2-1.46-1.21-2.92-1.06-4.29.65-6.08.5-6.58-5.41-7.86C9,90.34,8,89.08,9,86.73a42,42,0,0,1,4.39-8c4.42-5.86,7-11.8,5.15-19.49-1.92-8.22-.88-16.44,2.36-24.4,4.59-11.28,13.76-17.48,24.46-21.51,9-3.4,18.67-3.11,28.07-1.18,10.09,2.07,20.08,4.74,28.11,11.68a46.4,46.4,0,0,1,16.55,33.67c.68,11.72-2.47,22.2-10,31.32a12.88,12.88,0,0,0-1.6,2.89c-3,6.66-3.49,13.8-2.53,20.78.85,6.13,3,12.11,4.9,18C109.27,131.72,111.14,132.48,112.34,133.46ZM84.31,47l-1-.42c0-12-8-20-20.82-20.54C54.2,25.67,47,28.78,42.85,35.91,38.6,43.22,39.05,51,44.3,58.18c2.83,3.85,6.24,7.42,6.91,12.54.12.84,1.53,1.52,2.34,2.27.32-1,1.23-2.37.87-3.08C52.11,65.3,50,60.45,46.9,56.38c-4.44-5.82-3.61-11.8-1.54-17.76,2.35-6.73,9.86-9.22,17.72-8.82,4.2.22,8.4.95,11.76,4,7.51,6.74,5.3,18.56,0,25.87a67.48,67.48,0,0,0-5.72,10.51c-.33.67.48,1.88.76,2.84.84-.67,2.29-1.24,2.42-2,.79-5,4.21-8.46,6.74-12.5C81.27,54.92,82.59,50.84,84.31,47Zm-13,41.84c-3.78-2.82-17-2.43-19.31,0ZM51.5,79.47a61.13,61.13,0,0,0,19.84,0C68.63,77,55,77,51.5,79.47Zm4.64,15.8v1.32H67.38V95.27Z"/><path d="M112.34,133.46c-1.2-1-3.07-1.74-3.46-3-1.91-5.93-4-11.91-4.9-18-1-7-.51-14.12,2.53-20.78a12.88,12.88,0,0,1,1.6-2.89c7.54-9.12,10.69-19.6,10-31.32a46.4,46.4,0,0,0-16.55-33.67c-8-6.94-18-9.61-28.11-11.68-9.4-1.93-19-2.22-28.07,1.18-10.7,4-19.87,10.23-24.46,21.51-3.24,8-4.28,16.18-2.36,24.4,1.8,7.69-.73,13.63-5.15,19.49a42,42,0,0,0-4.39,8C8,89.08,9,90.34,11.57,90.89c5.91,1.28,6.06,1.78,5.41,7.86-.15,1.37.86,2.83,1.06,4.29.68,5,6.77,8.06,4.43,14.46-1.72,4.69,1.39,7.69,6.47,7.43,4.47-.23,8.92-1.05,13.39-1.12,5-.07,9.63,1.13,12.81,5.4a11.47,11.47,0,0,1,1.71,3.64,2,2,0,0,1-.91,1.74,1.89,1.89,0,0,1-1.78-.51c-3.42-8-10.19-7.08-16.87-6.42-2.11.21-4.19.66-6.3.93-7.49,1-12.58-3-11.91-10.38.54-5.89-3.06-9.46-5.4-13.89a8.31,8.31,0,0,1-.59-4.57c.32-2.76,1.53-5.29-3.21-5.56C5.82,94,3.87,88.64,6,84.51a33.64,33.64,0,0,1,4.53-7.2c5-5.55,5.28-11.9,4.19-18.75C12.42,44.18,15.77,31.07,26.5,21.14,39.56,9.05,55.3,4.12,73.11,8.76c7.61,2,15.47,3.8,22.46,7.22,10.32,5.06,17.74,13.69,22.16,24.24,5.64,13.44,6.63,27.09-.94,40.37-1.81,3.17-4.18,6.08-5.54,9.42a46.5,46.5,0,0,0-3.61,12.69c-1,9.37,0,18.6,4.69,27.1a17.42,17.42,0,0,1,.93,2.41Z"/><path d="M84.31,47c-1.72,3.85-3,7.93-5.26,11.47-2.53,4-6,7.49-6.74,12.5-.13.78-1.58,1.35-2.42,2-.28-1-1.09-2.17-.76-2.84a67.48,67.48,0,0,1,5.72-10.51c5.29-7.31,7.5-19.13,0-25.87-3.36-3-7.56-3.74-11.76-4-7.86-.4-15.37,2.09-17.72,8.82-2.07,6-2.9,11.94,1.54,17.76,3.11,4.07,5.21,8.92,7.52,13.53.36.71-.55,2-.87,3.08-.81-.75-2.22-1.43-2.34-2.27C50.54,65.6,47.13,62,44.3,58.18c-5.25-7.18-5.7-15-1.45-22.27C47,28.78,54.2,25.67,62.53,26c12.81.56,20.82,8.57,20.82,20.54Z"/><path d="M71.32,88.83H52C54.28,86.4,67.54,86,71.32,88.83Z"/><path d="M51.5,79.47C55,77,68.63,77,71.34,79.51A61.13,61.13,0,0,1,51.5,79.47Z"/><path d="M56.14,95.27H67.38v1.32H56.13Z"/></g></g></svg>