<svg xmlns="http://www.w3.org/2000/svg" viewBox="0 0 147 145.5"><defs><style>.cls-1{fill:#fff;}</style></defs><g id="Layer_2" data-name="Layer 2"><g fill='#794b1a' id="Layer_1-2" data-name="Layer 1"><path class="cls-1" d="M0,0H147V145.5H0ZM11.21,75.46C11.31,110.71,40,139,74.43,139.27,109,139.5,138.34,110,138,74.9A63.64,63.64,0,0,0,73.61,12C39.84,12.36,11.28,40.89,11.21,75.46Z"/><path d="M11.21,75.46c.07-34.57,28.63-63.1,62.4-63.45A63.64,63.64,0,0,1,138,74.9c.39,35.09-28.92,64.6-63.52,64.37C40,139,11.31,110.71,11.21,75.46Zm80.17-49c1,2.09,2,3.44,2.15,4.89.92,7.65,2.14,15.32,2.31,23,.25,11.48-4.21,20.94-13.35,28.27C77.82,86.4,73.12,90.51,75.16,98c1.06,3.9,1.75,4.83,5.69,3.84,2.89-.73,5.74-1.65,8.66-2.18,11.72-2.12,23.34-3,34.42,3,1.92,1,4,.85,5.06-1.46a43.48,43.48,0,0,0,2.28-6.65c2.42-9.23,3.49-18.46,2-28.09-2-13.26-7.6-24.52-17.1-33.69A56.76,56.76,0,0,0,85.81,17.06c-11.46-2-22.8-1.23-33.38,2.81A55.76,55.76,0,0,0,23.83,44c-5.54,9.43-8.74,19.59-8.54,30.79a71.55,71.55,0,0,0,3.42,21.63c1.41,4.27,3.16,7.19,7.63,9,5.27,2.12,10.56,4,16.14,3.6,8-.53,16-1.73,23.92-2.83,2.23-.3,3.78-2,2.84-4.29a33.38,33.38,0,0,0-4.66-8.8c-3.64-4.39-7.16-8.68-9.73-13.9-4.12-8.36-3.5-16.47,1.71-23.82A27.91,27.91,0,0,1,74.67,43.91c3.94-.74,6.18-3.19,8.27-6.3C85.38,34,88.21,30.62,91.38,26.48ZM72.81,135.23c21.7,0,37.59-8.46,50-24,2-2.51,1.56-5-1.19-6-8-2.81-16.22-4.44-24.54-2.73-10.29,2.12-20.43,5-30.62,7.6-11,2.83-22.09,4.53-33.43,1.82-1-.25-2.25.34-3.38.54.33,1.28.35,2.77,1.05,3.79,4.52,6.57,11.5,10.37,18.19,13.66C56.68,133.72,65.45,135.71,72.81,135.23Zm20-83.9-.72-.22c-.28-3.48-.38-7-.93-10.42-.23-1.5-1.37-2.85-2.1-4.27l-2.7,2.87c-.51.54-1,1.06-1.54,1.63C79.48,47.07,74,53,70.49,60.64c-4.09,9-3.71,18.1-2,27.38A2.87,2.87,0,0,0,70.24,90a3.37,3.37,0,0,0,2.53-1c3.69-4,7.31-8,10.88-12.1,1.78-2,4.26-4,5-6.36C90.44,64.21,91.46,57.72,92.81,51.33ZM68.72,54c.11-2.39-1-3.43-2.74-2.19-2.89,2-6.24,4.11-7.86,7-3.48,6.29-2.73,13.14.12,19.61.46,1,2.25,1.51,3.43,2.24a23.86,23.86,0,0,0,1.1-3.21c.82-4.33,1.32-8.73,2.38-13C66,60.88,67.51,57.46,68.72,54Z"/><path class="cls-1" d="M91.38,26.48c-3.17,4.14-6,7.5-8.44,11.13-2.09,3.11-4.33,5.56-8.27,6.3A27.91,27.91,0,0,0,56.56,55.4c-5.21,7.35-5.83,15.46-1.71,23.82,2.57,5.22,6.09,9.51,9.73,13.9a33.38,33.38,0,0,1,4.66,8.8c.94,2.33-.61,4-2.84,4.29-8,1.1-15.92,2.3-23.92,2.83-5.58.37-10.87-1.48-16.14-3.6-4.47-1.8-6.22-4.72-7.63-9a71.55,71.55,0,0,1-3.42-21.63c-.2-11.2,3-21.36,8.54-30.79a55.76,55.76,0,0,1,28.6-24.16c10.58-4,21.92-4.77,33.38-2.81A56.76,56.76,0,0,1,116.19,32.7c9.5,9.17,15.07,20.43,17.1,33.69,1.47,9.63.4,18.86-2,28.09a43.48,43.48,0,0,1-2.28,6.65c-1,2.31-3.14,2.48-5.06,1.46-11.08-5.93-22.7-5.07-34.42-3-2.92.53-5.77,1.45-8.66,2.18-3.94,1-4.63.06-5.69-3.84-2-7.47,2.66-11.58,7.33-15.33,9.14-7.33,13.6-16.79,13.35-28.27-.17-7.69-1.39-15.36-2.31-23C93.35,29.92,92.33,28.57,91.38,26.48Z"/><path class="cls-1" d="M72.81,135.23c-7.36.48-16.13-1.51-23.92-5.36-6.69-3.29-13.67-7.09-18.19-13.66-.7-1-.72-2.51-1.05-3.79,1.13-.2,2.35-.79,3.38-.54,11.34,2.71,22.4,1,33.43-1.82,10.19-2.61,20.33-5.48,30.62-7.6,8.32-1.71,16.58-.08,24.54,2.73,2.75,1,3.19,3.5,1.19,6C110.4,126.77,94.51,135.24,72.81,135.23Z"/><path class="cls-1" d="M92.81,51.33c-1.35,6.39-2.37,12.88-4.2,19.12-.7,2.41-3.18,4.32-5,6.36-3.57,4.08-7.19,8.13-10.88,12.1a3.37,3.37,0,0,1-2.53,1A2.87,2.87,0,0,1,68.48,88c-1.7-9.28-2.08-18.4,2-27.38C74,53,79.48,47.07,84.82,40.92c.49-.57,1-1.09,1.54-1.63l2.7-2.87c.73,1.42,1.87,2.77,2.1,4.27.55,3.44.65,6.94.93,10.42Z"/><path class="cls-1" d="M68.72,54c-1.21,3.49-2.69,6.91-3.57,10.48-1.06,4.27-1.56,8.67-2.38,13a23.86,23.86,0,0,1-1.1,3.21c-1.18-.73-3-1.19-3.43-2.24-2.85-6.47-3.6-13.32-.12-19.61,1.62-2.92,5-5,7.86-7C67.77,50.54,68.83,51.58,68.72,54Z"/></g></g></svg>