<svg xmlns="http://www.w3.org/2000/svg" viewBox="0 0 196.5 218.25"><defs><style>.cls-1{fill:#fff;}</style></defs><g id="Layer_2" data-name="Layer 2"><g fill='#794b1a' id="Layer_1-2" data-name="Layer 1"><path class="cls-1" d="M0,0H196.5V218.25H0ZM81.63,114.89c-1.28-4.34-2.16-7.73-3.28-11-1.24-3.69-.74-6.56,1.4-10.2a27.22,27.22,0,0,0,3.9-14.39c-.42-8.56-4.34-16.18-10.17-22.67A52.13,52.13,0,0,0,49.85,41.46C42.52,39.16,35,38,27.3,39.43,25,39.85,24,40.9,25.54,43c4.19,5.54,5.33,11.9,5.39,18.62a18.25,18.25,0,0,0,.76,5.87c1.05,2.94,0,4.76-2.31,6.36-9.25,6.54-12.49,14.85-9.18,25.34a20.9,20.9,0,0,0,15.68,14.56c8.23,2,15.18-.52,21.18-6.39a20.58,20.58,0,0,1,6.39-4c2.35-1,5-1.3,7.48-2,1.91-.52,4-1,4.62,1.48,1.54,5.87,2.84,11.82,4.22,17.73.6,2.57-.52,3.41-3.07,3.81a42.73,42.73,0,0,0-10.81,2.83,225.25,225.25,0,0,0-20.65,10.4c-3.44,2-5.72,1.32-8.33-1a87.06,87.06,0,0,0-8.68-7.05,18.71,18.71,0,0,0-7.06-3c-3.37-.58-9.6,3.93-11,7.71-1.64,4.34-.07,8.32,3,11.27,8.79,8.61,17.8,17,26.9,25.29a103.32,103.32,0,0,0,11.49,8.9c8,5.45,16.09,10.81,24.31,15.93a30,30,0,0,0,18.44,4.77c3-.23,5.86-1.15,8.81-1.62,6.27-1,12.54-2,18.84-2.82a79.82,79.82,0,0,1,13.68-1.06,7.16,7.16,0,0,1,5.22,3.83,11.9,11.9,0,0,0,5.65,6.55c3,1.75,5.95,3.63,9,5.39,3.79,2.22,5.47,1.83,7.71-1.81,7.22-11.76,14.37-23.56,21.66-35.28,2-3.15,1.67-5.63-1.45-7.61-4.11-2.59-8.2-5.23-12.5-7.46-1.08-.57-3.26-.09-4.37.7a4.9,4.9,0,0,1-6.2.12c-3.09-2.06-6-4.39-9.27-6.17a59.23,59.23,0,0,0-11.72-5.36c-7.84-2.29-15.59-4.12-22.17-9.71-8.72-7.41-18.83-12.53-30.47-14-2.42-.3-2.81-1.81-2.19-3.76,1.71-5.3,3.29-10.64,5.3-15.82,1.58-4,2.52-4.14,6.47-2.21a8.94,8.94,0,0,0,3.19,1c3.35.25,4.5,1.87,4.84,5.25,1.49,14.6,17.82,24.79,31.68,17.92,9.84-4.88,14.59-17.15,12.05-24.84-2.48-7.52-7.05-13.05-14.46-16.07-2.55-1-2.86-3-1.39-4.75a31.89,31.89,0,0,1,6-5.42c2.65-1.93,2.72-3.14-.22-4.76-1.63-.9-3.35-1.66-5-2.48-13.5-6.5-26.27-5.19-38.31,3.63C87.88,76.73,83.22,87,88.25,96c.9,1.61.58,4.32,0,6.27a66,66,0,0,1-4.09,9.1A33.24,33.24,0,0,1,81.63,114.89ZM95,60.69c11.07,1.38,22.93-11.34,22.14-22.67-.77-11.1-10.84-21.59-22.22-21.44-11.86.15-22.16,10.51-22.15,22.67C72.79,50.87,84.3,61.85,95,60.69Z"/><path d="M81.63,114.89a33.24,33.24,0,0,0,2.5-3.57,66,66,0,0,0,4.09-9.1c.61-2,.93-4.66,0-6.27-5-8.94-.37-19.22,6.33-24.12,12-8.82,24.81-10.13,38.31-3.63,1.69.82,3.41,1.58,5,2.48,2.94,1.62,2.87,2.83.22,4.76a31.89,31.89,0,0,0-6,5.42c-1.47,1.78-1.16,3.71,1.39,4.75,7.41,3,12,8.55,14.46,16.07,2.54,7.69-2.21,20-12.05,24.84-13.86,6.87-30.19-3.32-31.68-17.92-.34-3.38-1.49-5-4.84-5.25a8.94,8.94,0,0,1-3.19-1c-4-1.93-4.89-1.83-6.47,2.21-2,5.18-3.59,10.52-5.3,15.82-.62,1.95-.23,3.46,2.19,3.76,11.64,1.47,21.75,6.59,30.47,14,6.58,5.59,14.33,7.42,22.17,9.71A59.23,59.23,0,0,1,151,153.2c3.24,1.78,6.18,4.11,9.27,6.17a4.9,4.9,0,0,0,6.2-.12c1.11-.79,3.29-1.27,4.37-.7,4.3,2.23,8.39,4.87,12.5,7.46,3.12,2,3.41,4.46,1.45,7.61-7.29,11.72-14.44,23.52-21.66,35.28-2.24,3.64-3.92,4-7.71,1.81-3-1.76-6-3.64-9-5.39a11.9,11.9,0,0,1-5.65-6.55,7.16,7.16,0,0,0-5.22-3.83A79.82,79.82,0,0,0,121.89,196c-6.3.81-12.57,1.82-18.84,2.82-3,.47-5.85,1.39-8.81,1.62a30,30,0,0,1-18.44-4.77c-8.22-5.12-16.31-10.48-24.31-15.93A103.32,103.32,0,0,1,40,170.84c-9.1-8.28-18.11-16.68-26.9-25.29-3-3-4.6-6.93-3-11.27,1.43-3.78,7.66-8.29,11-7.71a18.71,18.71,0,0,1,7.06,3,87.06,87.06,0,0,1,8.68,7.05c2.61,2.28,4.89,2.95,8.33,1a225.25,225.25,0,0,1,20.65-10.4,42.73,42.73,0,0,1,10.81-2.83c2.55-.4,3.67-1.24,3.07-3.81-1.38-5.91-2.68-11.86-4.22-17.73-.66-2.52-2.71-2-4.62-1.48-2.49.68-5.13,1-7.48,2a20.58,20.58,0,0,0-6.39,4c-6,5.87-13,8.41-21.18,6.39A20.9,20.9,0,0,1,20.2,99.16c-3.31-10.49-.07-18.8,9.18-25.34,2.27-1.6,3.36-3.42,2.31-6.36a18.25,18.25,0,0,1-.76-5.87c-.06-6.72-1.2-13.08-5.39-18.62C24,40.9,25,39.85,27.3,39.43c7.71-1.39,15.22-.27,22.55,2A52.13,52.13,0,0,1,73.48,56.58c5.83,6.49,9.75,14.11,10.17,22.67a27.22,27.22,0,0,1-3.9,14.39c-2.14,3.64-2.64,6.51-1.4,10.2C79.47,107.16,80.35,110.55,81.63,114.89ZM118,170.37l.3,1.06c-1.17.44-2.34,1.26-3.51,1.27-13.73.09-27.47.19-41.2,0A12.74,12.74,0,0,1,61,161.67c-.44-3.37-2.24-5.29-4.66-7.2-6.44-5.09-12.76-10.33-19.17-15.45-3.3-2.64-6.57-5.35-10.07-7.7-3.76-2.52-10.42-2.23-12.71.2-2.13,2.24-2.47,8.35-.34,11.3A73.21,73.21,0,0,0,21.57,152c3.7,3.66,7.8,6.91,11.75,10.3,4.33,3.72,8.48,7.67,13.07,11,8.59,6.31,17.32,12.45,26.23,18.31,6.09,4,12.91,6.76,20.37,6.08s14.73-2.07,22.07-3.25c2.82-.45,5.58-1.59,8.39-1.69,4.8-.19,9.93-.8,14.33.6,5.39,1.71,6,2.4,9-2.43q6.8-10.9,13.34-22c2.34-4,1.78-6.48-1.89-8.92C150.18,154.7,142,149.14,132,148.31a71.46,71.46,0,0,0-16.26.72c-7,1-13.78,3.41-20.77,4.18-8.28.92-16.68.8-25,1-3,.08-5.28,1.51-6,4.14-.6,2.05-.76,4.92.26,6.6a11,11,0,0,0,10.24,5.63c14-.41,28-.49,41.94-.66A6.67,6.67,0,0,1,118,170.37Zm2-25.6a6.45,6.45,0,0,0-.54-1.41,6.3,6.3,0,0,0-1.25-1.37c-8.9-6.66-17.9-13.09-29.46-14.38-2.1-.24-4.2-.86-4.49,2.12-.24,2.38-.37,4.78,3.09,5.3a22.72,22.72,0,0,1,6,1.95c.84.39,1.31,1.56,2,2.37l-.81,1c-7.68-3.79-15.55-2.85-23.49-.53l-.38-2a73.74,73.74,0,0,0,8.17-3c1.12-.55,2.47-2.25,2.38-3.31-.17-1.89-.47-4.59-3.6-4.14s-6.37.58-9.15,1.79c-7.26,3.18-14.32,6.85-21.42,10.38-2,1-2.53,2.47-.59,4.06,4.32,3.55,8.6,7.17,13.13,10.43a4.89,4.89,0,0,0,4.52.17,16.49,16.49,0,0,1,9.87-2.74c5.1,0,10.21-.41,15.32-.51C99.78,150.77,109.81,148.14,120,144.77Zm-79.1-33.49a19,19,0,0,0,19.3-18.7A19.31,19.31,0,0,0,41.52,73.14c-9.55-.47-19.41,9-19.44,19C22,102.56,31.88,111.91,40.88,111.28Zm86.43-23.73c-12.17.21-20,7.94-19.82,19.42.22,11.08,8.39,19,19.41,18.65,11.27-.4,18.24-8.66,18.57-19C145.8,96.49,136.77,87.39,127.31,87.55ZM183,170.4l.85-1c-1.08-.6-2.18-1.17-3.24-1.81-3.1-1.86-6.27-3.62-9.25-5.65-2-1.37-3.21-.71-4.29,1Q156.45,180,145.82,197.15c-1.45,2.33-.9,3.92,1.34,5.25a75.48,75.48,0,0,1,7.92,4.93c3.07,2.39,4.85,1.24,6.55-1.55,6.8-11.14,13.65-22.24,20.46-33.37A15.73,15.73,0,0,0,183,170.4ZM36.18,42.65c0,.88-.1,1.21,0,1.35a5.66,5.66,0,0,0,1.32,1.22C55.16,55.77,66.27,71.58,74,90.11a11.85,11.85,0,0,0,1.92,2.44c.81-.67,1.91-1.17,2.38-2,3.07-5.58,2.92-11.75,1.22-17.4C76.26,62.23,69,54.19,59,48.64A45.84,45.84,0,0,0,36.18,42.65Zm-4,3.14c-.33.77-.64,1.13-.59,1.43,1.14,6.71,2.36,13.4,3.49,20.11.42,2.45,1.77,2.75,4,2.51a20.68,20.68,0,0,1,16.55,5.38C61.82,80.78,64.54,87.6,63.35,96c-.18,1.29.76,2.74,1.18,4.11,2.3-.81,4.81-1.29,6.8-2.59.74-.48.83-3.14.23-4.29-4.39-8.48-8.39-17.26-13.76-25.1A68.5,68.5,0,0,0,32.13,45.79Zm98,26.28.39-1.09c-1-.65-1.95-1.65-3.06-1.91-7-1.61-14-2.41-21-.09C99,71.45,92.74,75.36,89.87,83.22c-1.58,4.35-.79,8.46,2.57,11.22C102.18,82.38,114.22,74,130.15,72.07Zm1.26,4a11.12,11.12,0,0,0-2.67-.36A51.87,51.87,0,0,0,96.35,95.34c-.57.72-.8,2.79-.51,2.94a16.61,16.61,0,0,0,6,2.21,4.66,4.66,0,0,0,3.56-2.42,22,22,0,0,1,16.63-13.56C127,83.51,129,80.28,131.41,76.07Z"/><path d="M95,60.69c-10.7,1.16-22.21-9.82-22.23-21.44,0-12.16,10.29-22.52,22.15-22.67,11.38-.15,21.45,10.34,22.22,21.44C117.93,49.35,106.07,62.07,95,60.69Zm.19-40.76A18.84,18.84,0,0,0,75.87,38,19.3,19.3,0,0,0,94.29,58c10.77.16,19.67-8.32,19.77-18.68A18.87,18.87,0,0,0,95.19,19.93Z"/><path class="cls-1" d="M118,170.37a6.67,6.67,0,0,0-1.65-.42c-14,.17-28,.25-41.94.66A11,11,0,0,1,64.19,165c-1-1.68-.86-4.55-.26-6.6.76-2.63,3-4.06,6-4.14,8.35-.23,16.75-.11,25-1,7-.77,13.8-3.14,20.77-4.18a71.46,71.46,0,0,1,16.26-.72c10,.83,18.15,6.39,26.24,11.76,3.67,2.44,4.23,5,1.89,8.92q-6.57,11-13.34,22c-3,4.83-3.65,4.14-9,2.43-4.4-1.4-9.53-.79-14.33-.6-2.81.1-5.57,1.24-8.39,1.69-7.34,1.18-14.68,2.57-22.07,3.25s-14.28-2.08-20.37-6.08c-8.91-5.86-17.64-12-26.23-18.31-4.59-3.36-8.74-7.31-13.07-11-3.95-3.39-8-6.64-11.75-10.3a73.21,73.21,0,0,1-7.51-9.19c-2.13-2.95-1.79-9.06.34-11.3,2.29-2.43,9-2.72,12.71-.2,3.5,2.35,6.77,5.06,10.07,7.7,6.41,5.12,12.73,10.36,19.17,15.45,2.42,1.91,4.22,3.83,4.66,7.2a12.74,12.74,0,0,0,12.6,11.05c13.73.17,27.47.07,41.2,0,1.17,0,2.34-.83,3.51-1.27Z"/><path class="cls-1" d="M120,144.77c-10.17,3.37-20.2,6-30.74,6.23-5.11.1-10.22.47-15.32.51a16.49,16.49,0,0,0-9.87,2.74,4.89,4.89,0,0,1-4.52-.17c-4.53-3.26-8.81-6.88-13.13-10.43-1.94-1.59-1.39-3.07.59-4.06,7.1-3.53,14.16-7.2,21.42-10.38,2.78-1.21,6.07-1.35,9.15-1.79s3.43,2.25,3.6,4.14c.09,1.06-1.26,2.76-2.38,3.31a73.74,73.74,0,0,1-8.17,3l.38,2c7.94-2.32,15.81-3.26,23.49.53l.81-1c-.64-.81-1.11-2-2-2.37a22.72,22.72,0,0,0-6-1.95c-3.46-.52-3.33-2.92-3.09-5.3.29-3,2.39-2.36,4.49-2.12,11.56,1.29,20.56,7.72,29.46,14.38a6.3,6.3,0,0,1,1.25,1.37A6.45,6.45,0,0,1,120,144.77Z"/><path class="cls-1" d="M40.88,111.28c-9,.63-18.84-8.72-18.8-19.12,0-10,9.89-19.49,19.44-19A19.31,19.31,0,0,1,60.18,92.58,19,19,0,0,1,40.88,111.28ZM46.8,87.17,48.21,87c-.35-1.52-.25-3.38-1.11-4.5-4.09-5.29-7.51-5.46-12.68-1-3.18,2.76-3.42,6-.49,9,1.1,1.13,3.21,1.73,3.66,3,.75,2.11,1.58,5.5.52,6.68-1.8,2-2.38-1.15-3.44-2.26a3.31,3.31,0,0,0-2.21-.85c-.32,0-.89,1.12-.89,1.73,0,2.91,6.64,8.37,9.43,7.85,3.25-.61,7.89-4.84,8.26-7.9.41-3.51-1.62-5.8-4.49-7.47s-3.43-4.18-1.8-7.78Z"/><path class="cls-1" d="M127.31,87.55c9.46-.16,18.49,8.94,18.16,19.07-.33,10.34-7.3,18.6-18.57,19-11,.4-19.19-7.57-19.41-18.65C107.26,95.49,115.14,87.76,127.31,87.55Zm-5.19,28.13a30.29,30.29,0,0,0-2.58-3.48,1.55,1.55,0,0,0-2.76,1.31c.19,2.72,6.79,7.77,9.49,7.37s7.37-4.48,7.91-6.83c.89-3.86-.79-6.6-4-8.36-3.51-1.89-3-4.42-1.74-8.51,1.34,1.75,1.94,2.94,2.9,3.59.46.31,1.61-.41,2.45-.66-.69-1.39-1-3.24-2.14-4.06-2.07-1.51-4.56-3.23-6.93-3.32-1.79-.07-3.9,2-5.47,3.57-3,2.92-2.74,6.17.38,9.08.72.67,1.59,1.19,2.36,1.81C124.38,109.13,124.59,112.47,122.12,115.68Z"/><path class="cls-1" d="M183,170.4a15.73,15.73,0,0,1-.89,2c-6.81,11.13-13.66,22.23-20.46,33.37-1.7,2.79-3.48,3.94-6.55,1.55a75.48,75.48,0,0,0-7.92-4.93c-2.24-1.33-2.79-2.92-1.34-5.25q10.67-17.09,21.23-34.22c1.08-1.73,2.28-2.39,4.29-1,3,2,6.15,3.79,9.25,5.65,1.06.64,2.16,1.21,3.24,1.81Zm-24.43,33.72a26.22,26.22,0,0,0,3.06-4c.23-.46-.82-2.23-1.34-2.25C158.17,197.72,156.86,201.59,158.55,204.12Z"/><path class="cls-1" d="M36.18,42.65a45.84,45.84,0,0,1,22.83,6c10,5.55,17.25,13.59,20.53,24.49,1.7,5.65,1.85,11.82-1.22,17.4-.47.85-1.57,1.35-2.38,2A11.85,11.85,0,0,1,74,90.11c-7.75-18.53-18.86-34.34-36.5-44.89A5.66,5.66,0,0,1,36.2,44C36.08,43.86,36.18,43.53,36.18,42.65Z"/><path class="cls-1" d="M32.13,45.79A68.5,68.5,0,0,1,57.8,68.09c5.37,7.84,9.37,16.62,13.76,25.1.6,1.15.51,3.81-.23,4.29-2,1.3-4.5,1.78-6.8,2.59-.42-1.37-1.36-2.82-1.18-4.11,1.19-8.36-1.53-15.18-7.74-20.74a20.68,20.68,0,0,0-16.55-5.38c-2.26.24-3.61-.06-4-2.51-1.13-6.71-2.35-13.4-3.49-20.11C31.49,46.92,31.8,46.56,32.13,45.79Z"/><path class="cls-1" d="M130.15,72.07c-15.93,1.89-28,10.31-37.71,22.37-3.36-2.76-4.15-6.87-2.57-11.22C92.74,75.36,99,71.45,106.48,69c7-2.32,14-1.52,21,.09,1.11.26,2,1.26,3.06,1.91Z"/><path class="cls-1" d="M131.41,76.07c-2.44,4.21-4.46,7.44-9.34,8.44a22,22,0,0,0-16.63,13.56,4.66,4.66,0,0,1-3.56,2.42,16.61,16.61,0,0,1-6-2.21c-.29-.15-.06-2.22.51-2.94a51.87,51.87,0,0,1,32.39-19.63A11.12,11.12,0,0,1,131.41,76.07Z"/><path class="cls-1" d="M95.19,19.93a18.87,18.87,0,0,1,18.87,19.38c-.1,10.36-9,18.84-19.77,18.68A19.3,19.3,0,0,1,75.87,38,18.84,18.84,0,0,1,95.19,19.93Zm6.69,14.63c-.23-2.19.17-4.27-.65-5-2.21-2-5.33-5.16-7.36-4.7-2.88.65-6,3.71-7.41,6.53-1.72,3.33,1.25,5.74,3.89,7.94,1.29,1.09,1.83,3.28,2.27,5.07.2.82-.68,1.89-1.08,2.85-.84-.57-1.66-1.15-2.51-1.7s-1.81-1.13-2.71-1.69c-.09,1.12-.59,2.41-.21,3.33,2.49,6,9.81,7.14,14.71,2.29,3.57-3.53,3.47-7-.33-10.18-1-.89-2.67-1.45-3.16-2.54-.71-1.61-1.51-4.42-.73-5.21,1.89-1.92,2.3.91,3.28,1.9A13.48,13.48,0,0,0,101.88,34.56Z"/><path d="M46.8,87.17,43,83.53c-1.63,3.6-1.21,6,1.8,7.78s4.9,4,4.49,7.47c-.37,3.06-5,7.29-8.26,7.9-2.79.52-9.44-4.94-9.43-7.85,0-.61.57-1.73.89-1.73a3.31,3.31,0,0,1,2.21.85c1.06,1.11,1.64,4.24,3.44,2.26,1.06-1.18.23-4.57-.52-6.68-.45-1.26-2.56-1.86-3.66-3-2.93-3-2.69-6.26.49-9,5.17-4.5,8.59-4.33,12.68,1,.86,1.12.76,3,1.11,4.5Zm-5,7.51,1.36,5.94c.83-.55,2.17-1,2.39-1.68C46.15,96.79,45.51,95.1,41.76,94.68Zm-1.95-8.17-2.5-2.61c-.61.78-1.8,1.64-1.71,2.33.12,1,1.18,1.87,1.84,2.79Z"/><path d="M122.12,115.68c2.47-3.21,2.26-6.55-.17-8.49-.77-.62-1.64-1.14-2.36-1.81-3.12-2.91-3.36-6.16-.38-9.08,1.57-1.54,3.68-3.64,5.47-3.57,2.37.09,4.86,1.81,6.93,3.32,1.11.82,1.45,2.67,2.14,4.06-.84.25-2,1-2.45.66-1-.65-1.56-1.84-2.9-3.59-1.23,4.09-1.77,6.62,1.74,8.51,3.25,1.76,4.93,4.5,4,8.36-.54,2.35-5.3,6.44-7.91,6.83s-9.3-4.65-9.49-7.37a1.55,1.55,0,0,1,2.76-1.31A30.29,30.29,0,0,1,122.12,115.68Zm5.1-7.05,1.07,6.43c.87-.47,2.22-.75,2.52-1.47C131.7,111.44,130.86,109.82,127.22,108.63Z"/><path d="M158.55,204.12c-1.69-2.53-.38-6.4,1.72-6.29.52,0,1.57,1.79,1.34,2.25A26.22,26.22,0,0,1,158.55,204.12Z"/><path d="M101.88,34.56a13.48,13.48,0,0,1-2-1.12c-1-1-1.39-3.82-3.28-1.9-.78.79,0,3.6.73,5.21.49,1.09,2.11,1.65,3.16,2.54,3.8,3.22,3.9,6.65.33,10.18-4.9,4.85-12.22,3.76-14.71-2.29-.38-.92.12-2.21.21-3.33.9.56,1.81,1.11,2.71,1.69s1.67,1.13,2.51,1.7c.4-1,1.28-2,1.08-2.85-.44-1.79-1-4-2.27-5.07-2.64-2.2-5.61-4.61-3.89-7.94,1.46-2.82,4.53-5.88,7.41-6.53,2-.46,5.15,2.69,7.36,4.7C102.05,30.29,101.65,32.37,101.88,34.56Zm-9-4.28c-3.5,3.08-3.52,4.06-.34,6.22Zm2.38,13.89c.87,1.13,1.52,2,2.18,2.81.61-.88,1.74-1.78,1.71-2.64S98,42.56,97.34,41.67Z"/><path class="cls-1" d="M41.76,94.68c3.75.42,4.39,2.11,3.75,4.26-.22.73-1.56,1.13-2.39,1.68Z"/><path class="cls-1" d="M39.81,86.51,37.44,89c-.66-.92-1.72-1.8-1.84-2.79-.09-.69,1.1-1.55,1.71-2.33Z"/><path class="cls-1" d="M127.22,108.63c3.64,1.19,4.48,2.81,3.59,5-.3.72-1.65,1-2.52,1.47Z"/><path class="cls-1" d="M92.88,30.28l-.34,6.22C89.36,34.34,89.38,33.36,92.88,30.28Z"/><path class="cls-1" d="M95.26,44.17l2.08-2.5c.65.89,1.78,1.76,1.81,2.67S98.05,46.1,97.44,47C96.78,46.14,96.13,45.3,95.26,44.17Z"/></g></g></svg>