<svg xmlns="http://www.w3.org/2000/svg" viewBox="0 0 159.75 194.25"><defs><style>.cls-1{fill:#fff;}</style></defs><g id="Layer_2" data-name="Layer 2"><g fill='#794b1a' id="Layer_1-2" data-name="Layer 1"><path class="cls-1" d="M159.75,194.25H0V0H159.75ZM100,48.76l.56-.81a5.12,5.12,0,0,0-.73-1.85c-3.33-3.33-6.47-6.92-10.15-9.8-5.24-4.09-5.35-3.85-3.43-10.23.38-1.26.59-3.25-.11-4C82.62,18,77.78,19,76,24c-.21.58-.12,1.44-.5,1.76-1.13.94-2.44,2.37-3.67,2.36C66.88,28,62,27.35,57,27.21c-3.43-.09-3.87-2.49-4.54-4.92s.58-3.57,2.72-4.45c4.06-1.67,4.12-2.59,2.41-8.43-1-3.56-3.31-4-6.3-3.23C46,7.53,40.68,8.81,35.48,10.46a4.65,4.65,0,0,0-2.65,3.33,13.94,13.94,0,0,0,1.37,6.47c.5,1,2.68,2.1,3.7,1.8,3-.87,4.48.05,5.39,2.81,1,3,.63,5.2-2.6,6.72A66.11,66.11,0,0,0,31.38,37c-4.82,3.32-4.74,3.43-9.2-.44-3.45-3-3.58-2.85-7.58,1.43-2.62,2.81-1.35,4.39,1.05,6.3,4.44,3.53,4.25,3.88,1.68,8.91C9.05,69.4,8.9,85.64,17.5,101.77c7,13.17,18.18,21.37,32.4,24.9,12.82,3.18,25.19.82,36.6-5.94.85-.5,1.31-1.65,1.94-2.5l-.62-.94c-11.72,6-23.61,10.09-37,6.65S27,113.32,20.25,101.36C10,83.25,11.54,60.24,25.66,46.15,50.69,21.18,75.86,25.23,100,48.76ZM86.39,158.36c-2-.37-2.82-.79-3.53-.62-3.86.89-7.67,2-11.53,2.88a105.87,105.87,0,0,1-11.66,2.31c-3,.35-5.67-1.32-6.1-4.31a9.47,9.47,0,0,1,1.61-6.72c1.34-1.6,4.06-2.23,6.28-2.9,11.54-3.49,23.11-6.87,34.67-10.28,4.93-1.45,9.94-3,14.72.25,5.35,3.62,10.54,7.48,15.83,11.18,2.43,1.7,2.78,3.47,1,5.94q-6,8.11-11.61,16.43c-2,3-4.11,3.17-7.26,1.47a10.85,10.85,0,0,0-7-1.18q-17.39,4.11-34.59,9a10.27,10.27,0,0,1-9.48-1.47C44.77,171.06,31.84,161.81,19,152.47c-3.65-2.65-4.6-7.43-2.34-10.45S23,138.68,27,141.38,34.87,147,38.9,149.7a18.47,18.47,0,0,0,3.75,1.5l.64-1.46C36.72,145,30.69,139.49,23,136.47a5.8,5.8,0,0,0-3.61.36,10.29,10.29,0,0,0-7.1,8.41c-.65,4,1.76,7,4.72,9.17,13.26,9.64,26.68,19.05,40,28.65a10.82,10.82,0,0,0,9.53,1.79c6.73-1.72,13.44-3.54,20.18-5.26,5.29-1.35,10.58-2.75,15.93-3.85,4.72-1,8,1.47,7.27,5.11s3.54,7.94,8.44,7.49c-1.41-1.41-2.43-2.54-3.57-3.52-1.71-1.47-2-3-.71-4.9l19.05-27.16c1.47-2.09,3.16-2.62,5.36-1,1.3,1,2.76,1.73,4.54,2.83-.43-3.4-5.81-8.11-8-7.69a2.58,2.58,0,0,0-1.27.7c-2.32,2.34-4.28,1.41-6.53-.3q-7-5.31-14.23-10.23c-4.56-3.08-9.4-4.15-14.82-1.89-3.42,1.43-7.13,2.15-10.71,3.2-9.89,2.89-19.79,5.75-29.67,8.7a10.33,10.33,0,0,0-7.5,8.49,7.72,7.72,0,0,0,4.36,8.73,15.64,15.64,0,0,0,8.9,1.11c6.35-1.09,12.58-2.91,18.82-4.57C83.43,160.58,84.39,159.62,86.39,158.36ZM42.47,43.55l.28,1.06a35.82,35.82,0,0,0,4.64-1.18,35.3,35.3,0,0,1,25.55-.67c23.9,8.69,32.17,36.53,17.37,57.36C77,118.81,47.25,119.67,33,101.66c-8.07-10.19-10.78-21.6-7-34.3a36.57,36.57,0,0,0,.78-4.94c-7.32,6.86-7.69,30.13,7.14,44.29,15.33,14.65,40.41,14.48,55.05-.94,15.85-16.7,15.45-40.36-.62-56.6C74.43,35.15,52.41,35.16,42.47,43.55ZM76.92,66.7l-.64-.89a12.53,12.53,0,0,0-3,1.59c-3.14,3-6.23,6.08-9.19,9.26-2.25,2.43-4,2.15-6.18-.19-7-7.6-14.06-15.11-21.16-22.6a22.74,22.74,0,0,0-3.15-2.4l-.87.82a13.94,13.94,0,0,0,1.65,2.93c8,8.64,16.18,17.21,24.23,25.84,1.62,1.74,3,1.89,4.69.14,4-4.11,8-8.12,12-12.21A16.18,16.18,0,0,0,76.92,66.7Zm27.31,32.15c5-4.25,5.62-10.12,6.15-15.83.89-9.73.46-11.46-2.75-13.56C108.21,79.8,107.91,89.53,104.23,98.85ZM145.86,58.5c-3-3.5-13.26-3.45-16,0Zm-6.1,25.78c-2.78-3-12.8-2.8-15.3,0Zm-33.24,24.81c-1.86,0-3.73-.11-5.57.06a2,2,0,0,0-1.36,1.36,1.93,1.93,0,0,0,1.28,1.4c3.84.12,7.69.12,11.53,0,.51,0,1-.87,1.49-1.33-.6-.51-1.15-1.38-1.79-1.45A49.42,49.42,0,0,0,106.52,109.09Zm7.68-73.62c-1.43-3.16-5.65-4-7.2-2.54a1.9,1.9,0,0,0-.57,1.56,1.84,1.84,0,0,0,1.4.94C110,35.53,112.08,35.47,114.2,35.47Zm16.43,72.79-3.18,2.39c1.1.48,2.19,1.31,3.3,1.34s2-.85,3-1.33Z"/><path d="M100,48.76C75.86,25.23,50.69,21.18,25.66,46.15,11.54,60.24,10,83.25,20.25,101.36c6.76,12,17.15,19.15,30.53,22.58s25.32-.65,37-6.65l.62.94c-.63.85-1.09,2-1.94,2.5-11.41,6.76-23.78,9.12-36.6,5.94-14.22-3.53-25.37-11.73-32.4-24.9C8.9,85.64,9.05,69.4,17.33,53.22c2.57-5,2.76-5.38-1.68-8.91C13.25,42.4,12,40.82,14.6,38c4-4.28,4.13-4.43,7.58-1.43,4.46,3.87,4.38,3.76,9.2.44a66.11,66.11,0,0,1,9.31-5.43c3.23-1.52,3.58-3.73,2.6-6.72-.91-2.76-2.41-3.68-5.39-2.81-1,.3-3.2-.79-3.7-1.8a13.94,13.94,0,0,1-1.37-6.47,4.65,4.65,0,0,1,2.65-3.33C40.68,8.81,46,7.53,51.29,6.18c3-.76,5.27-.33,6.3,3.23,1.71,5.84,1.65,6.76-2.41,8.43-2.14.88-3.41,2-2.72,4.45s1.11,4.83,4.54,4.92c5,.14,9.88.81,14.82.86,1.23,0,2.54-1.42,3.67-2.36.38-.32.29-1.18.5-1.76C77.78,19,82.62,18,86.14,22c.7.79.49,2.78.11,4-1.92,6.38-1.81,6.14,3.43,10.23,3.68,2.88,6.82,6.47,10.15,9.8a5.12,5.12,0,0,1,.73,1.85ZM38.75,19.17c5.39-1.46,10.07-2.58,14.63-4.1.9-.3,2.08-2.71,1.76-3.16-.83-1.16-2.57-2.62-3.7-2.44a89.33,89.33,0,0,0-13.28,3.25,4.22,4.22,0,0,0-2.09,3.48C36.2,17.32,37.87,18.27,38.75,19.17Zm45.63,6.37L81.2,23.07a31.84,31.84,0,0,0-3.42,4.77c-.17.36,1.57,1.66,2.43,2.53ZM24.9,43c-2.33-2-3.93-3.42-5.7-4.65a10.91,10.91,0,0,0-2.05,2.19,22.47,22.47,0,0,0,4.25,4.08C21.81,44.92,23.12,43.88,24.9,43Z"/><path d="M86.39,158.36c-2,1.26-3,2.22-4.1,2.52-6.24,1.66-12.47,3.48-18.82,4.57a15.64,15.64,0,0,1-8.9-1.11,7.72,7.72,0,0,1-4.36-8.73,10.33,10.33,0,0,1,7.5-8.49c9.88-3,19.78-5.81,29.67-8.7,3.58-1,7.29-1.77,10.71-3.2,5.42-2.26,10.26-1.19,14.82,1.89q7.25,4.9,14.23,10.23c2.25,1.71,4.21,2.64,6.53.3a2.58,2.58,0,0,1,1.27-.7c2.23-.42,7.61,4.29,8,7.69-1.78-1.1-3.24-1.85-4.54-2.83-2.2-1.66-3.89-1.13-5.36,1L114,179.92c-1.31,1.86-1,3.43.71,4.9,1.14,1,2.16,2.11,3.57,3.52-4.9.45-9.15-3.76-8.44-7.49s-2.55-6.09-7.27-5.11c-5.35,1.1-10.64,2.5-15.93,3.85-6.74,1.72-13.45,3.54-20.18,5.26A10.82,10.82,0,0,1,57,183.06c-13.29-9.6-26.71-19-40-28.65-3-2.15-5.37-5.12-4.72-9.17a10.29,10.29,0,0,1,7.1-8.41,5.8,5.8,0,0,1,3.61-.36c7.71,3,13.74,8.55,20.31,13.27l-.64,1.46a18.47,18.47,0,0,1-3.75-1.5c-4-2.69-7.92-5.58-11.92-8.32S18.9,139,16.62,142s-1.31,7.8,2.34,10.45c12.88,9.34,25.81,18.59,38.73,27.87a10.27,10.27,0,0,0,9.48,1.47q17.2-4.87,34.59-9a10.85,10.85,0,0,1,7,1.18c3.15,1.7,5.22,1.53,7.26-1.47q5.66-8.31,11.61-16.43c1.82-2.47,1.47-4.24-1-5.94-5.29-3.7-10.48-7.56-15.83-11.18-4.78-3.24-9.79-1.7-14.72-.25C84.57,142.13,73,145.51,61.46,149c-2.22.67-4.94,1.3-6.28,2.9a9.47,9.47,0,0,0-1.61,6.72c.43,3,3.08,4.66,6.1,4.31a105.87,105.87,0,0,0,11.66-2.31c3.86-.88,7.67-2,11.53-2.88C83.57,157.57,84.4,158,86.39,158.36Z"/><path d="M42.47,43.55c9.94-8.39,32-8.4,45.83,5.62,16.07,16.24,16.47,39.9.62,56.6-14.64,15.42-39.72,15.59-55,.94C19,92.55,19.41,69.28,26.73,62.42A36.57,36.57,0,0,1,26,67.36c-3.75,12.7-1,24.11,7,34.3,14.27,18,44.06,17.15,57.33-1.54,14.8-20.83,6.53-48.67-17.37-57.36a35.3,35.3,0,0,0-25.55.67,35.82,35.82,0,0,1-4.64,1.18Z"/><path d="M76.92,66.7A16.18,16.18,0,0,1,75.36,69c-4,4.09-8.07,8.1-12,12.21-1.7,1.75-3.07,1.6-4.69-.14-8-8.63-16.18-17.2-24.23-25.84a13.94,13.94,0,0,1-1.65-2.93l.87-.82a22.74,22.74,0,0,1,3.15,2.4c7.1,7.49,14.18,15,21.16,22.6,2.15,2.34,3.93,2.62,6.18.19,3-3.18,6.05-6.25,9.19-9.26a12.53,12.53,0,0,1,3-1.59Z"/><path d="M104.23,98.85c3.68-9.32,4-19,3.4-29.39,3.21,2.1,3.64,3.83,2.75,13.56C109.85,88.73,109.2,94.6,104.23,98.85Z"/><path d="M145.86,58.5h-16C132.6,55.05,142.83,55,145.86,58.5Z"/><path d="M139.76,84.28h-15.3C127,81.48,137,81.31,139.76,84.28Z"/><path d="M106.52,109.08a51.88,51.88,0,0,1,5.58.07c.64.07,1.19.94,1.79,1.45-.5.46-1,1.31-1.49,1.33-3.84.1-7.69.1-11.53,0a1.93,1.93,0,0,1-1.28-1.4,2,2,0,0,1,1.36-1.36C102.79,109,104.66,109.09,106.52,109.08Z"/><path d="M114.2,35.47c-2.12,0-4.25.06-6.37,0a1.84,1.84,0,0,1-1.4-.94,1.9,1.9,0,0,1,.57-1.56C108.55,31.49,112.77,32.31,114.2,35.47Z"/><path d="M130.63,108.26l3.1,2.4c-1,.48-2,1.35-3,1.33s-2.2-.86-3.3-1.34Z"/><path class="cls-1" d="M38.75,19.17c-.88-.9-2.55-1.85-2.68-3a4.22,4.22,0,0,1,2.09-3.48A89.33,89.33,0,0,1,51.44,9.47c1.13-.18,2.87,1.28,3.7,2.44.32.45-.86,2.86-1.76,3.16C48.82,16.59,44.14,17.71,38.75,19.17Z"/><path class="cls-1" d="M84.38,25.54l-4.17,4.83c-.86-.87-2.6-2.17-2.43-2.53a31.84,31.84,0,0,1,3.42-4.77Z"/><path class="cls-1" d="M24.9,43c-1.78.86-3.09,1.9-3.5,1.62a22.47,22.47,0,0,1-4.25-4.08,10.91,10.91,0,0,1,2.05-2.19C21,39.6,22.57,41.05,24.9,43Z"/></g></g></svg>