<svg xmlns="http://www.w3.org/2000/svg" viewBox="0 0 188.25 180"><defs><style>.cls-1{fill:#fff;}</style></defs><g id="Layer_2" data-name="Layer 2"><g fill='#794b1a' id="Layer_1-2" data-name="Layer 1"><path class="cls-1" d="M0,180V0H188.25V180Zm176.89-39.54h.3c0-2,0-4,0-6,.06-8.93-4.28-13.58-13.22-14.26-3.22-.25-6.43-.61-9.63-1-13.3-1.74-26.49-4.84-40-3.49-6.37.64-12,2.72-16.42,7.77A11.08,11.08,0,0,1,92,126.92c-5.35,1-10.81,1.34-16.23,1.89-2,.2-4.17-.23-5.92.48-3.57,1.45-6.36.27-9.48-1.31-7-3.52-14-7.23-22.27-6.27-1,.12-2.13-.57-3.21-.83-4.81-1.13-9.59-2.5-14.46-3.28-3.39-.55-6.71.42-7.64,4.35-.83,3.52,1.72,5.33,4.3,7.1,4.83,3.3,9.69,6.58,14.22,10.26,8.2,6.66,15.89,13.94,25.8,18.25,7.17,3.11,14,7,21.05,10.38,5.31,2.55,11,3.67,16.67,1.71A173.52,173.52,0,0,0,116,161.28c15.61-7.78,31.61-10.07,48.48-5.22a17.6,17.6,0,0,0,3.69.56c5.18.32,8.32-2.33,8.7-7.54C177.06,146.22,176.89,143.33,176.89,140.46ZM88.75,40.58A23.59,23.59,0,1,0,64.53,63.79,23.59,23.59,0,0,0,88.75,40.58ZM92,113.19c12.85.08,23.53-10.76,23.59-24C115.63,76.8,104.8,66.13,92.07,66A23.35,23.35,0,0,0,68.15,89.85,23.6,23.6,0,0,0,92,113.19Zm-53.53,0A23.62,23.62,0,1,0,15,89.91,23.56,23.56,0,0,0,38.45,113.19Z"/><path d="M176.89,140.46c0,2.87.17,5.76,0,8.62-.38,5.21-3.52,7.86-8.7,7.54a17.6,17.6,0,0,1-3.69-.56c-16.87-4.85-32.87-2.56-48.48,5.22a173.52,173.52,0,0,1-21.13,8.37c-5.67,2-11.36.84-16.67-1.71-7.06-3.38-13.88-7.27-21.05-10.38-9.91-4.31-17.6-11.59-25.8-18.25-4.53-3.68-9.39-7-14.22-10.26-2.58-1.77-5.13-3.58-4.3-7.1.93-3.93,4.25-4.9,7.64-4.35,4.87.78,9.65,2.15,14.46,3.28,1.08.26,2.19,1,3.21.83,8.29-1,15.29,2.75,22.27,6.27,3.12,1.58,5.91,2.76,9.48,1.31,1.75-.71,3.94-.28,5.92-.48,5.42-.55,10.88-.91,16.23-1.89a11.08,11.08,0,0,0,5.86-3.46c4.42-5,10.05-7.13,16.42-7.77,13.56-1.35,26.75,1.75,40.05,3.49,3.2.41,6.41.77,9.63,1,8.94.68,13.28,5.33,13.22,14.26,0,2,0,4,0,6ZM57.66,131.83c-.62-.76-.84-1.29-1.24-1.49-5.32-2.71-10.6-5.51-16.94-4.56a10.92,10.92,0,0,1-3.93-.63c-4.92-1.23-9.8-2.66-14.76-3.69-1.21-.25-2.69.76-4,1.19.83,1.11,1.45,2.47,2.51,3.28,5.52,4.24,11.12,8.39,16.75,12.47,6.83,4.95,13.46,10.24,20.66,14.57s15.18,7.91,22.9,11.6c4.84,2.31,10.08,3.25,15.23,1.34,7.1-2.64,14.11-5.57,21-8.67,10.33-4.62,20.83-8.46,32.36-7.39,6.41.6,12.76,1.86,19.14,2.82,3.88.59,5.72-.74,5.88-4.68q.33-7.86.22-15.74a8.2,8.2,0,0,0-6.81-7.8c-10.09-1.43-20.15-3.21-30.3-4.11a201,201,0,0,0-24.18-.33c-4.58.15-8.34,2.43-11.5,6.12a14.11,14.11,0,0,1-7.43,4.46c-6.07,1.18-12.35,1.24-18.47,2.21a157.37,157.37,0,0,0-16.28,3.65c-1.15.31-2.88,2.14-2.71,2.9.27,1.24,1.74,2.47,3,3.15a10.94,10.94,0,0,0,4.33.93c4.22.3,8.45.58,12.68.67,9.8.19,19.6.24,29.41.4,2,0,4.6-1.89,5.58,1.31.09.28-3.43,2.44-5.26,2.42-14.54-.16-29.07-.59-43.6-1.09a18.71,18.71,0,0,1-6.11-1.62c-5.18-2.13-5.87-7.86-1.46-11.37C55.27,133.4,56.32,132.76,57.66,131.83Z"/><path d="M88.75,40.58a23.59,23.59,0,1,1-47.18-.94,23.59,23.59,0,0,1,47.18.94ZM55.94,34.3c.75-5.85,1.48-7.4,5.11-9.2a9.19,9.19,0,0,1,9.87.84c3.59,2.51,4.42,10.11,1.68,14.77-2.12,3.61-1.65,4.95,2.26,6.39.81.3,1.68.48,2.47.82,5.54,2.37,6.54,1.82,7.29-4.12A27.65,27.65,0,0,0,85,40.07C84.88,31.59,80.8,25.6,73.32,22c-6.88-3.34-15.81-1.8-21.57,3.54-6.25,5.8-7.44,13-5.45,20.93.32,1.26,3.2,3.19,3.65,2.89,3-2,8.15-.82,9.18-5.76.15-.71-.57-1.6-.86-2.42C57.48,38.86,56.71,36.58,55.94,34.3ZM65.48,61c3.87-1.61,7.81-2.92,11.42-4.85,2.48-1.31,1.92-3.26-.46-4.45-1.55-.78-3.27-1.22-4.82-2-4.48-2.23-5.19-4.89-3.3-9.43a25.14,25.14,0,0,0,1.76-7.94c.2-3.07-1.84-4.35-4.8-4.36s-5.06,1.08-4.77,4.28a33.59,33.59,0,0,0,1.83,8.29c1.54,4.22.78,7-3.17,9-1.42.74-3,1.11-4.44,1.89-1,.56-2.55,1.54-2.52,2.28a4.1,4.1,0,0,0,2.06,3C57.7,58.36,61.31,59.51,65.48,61Z"/><path d="M92,113.19A23.6,23.6,0,0,1,68.15,89.85,23.35,23.35,0,0,1,92.07,66c12.73.15,23.56,10.82,23.5,23.26C115.51,102.43,104.83,113.27,92,113.19Zm19.83-22.4c.26-11.57-8.78-21.12-19.48-21.26C81.2,69.38,71.5,78.92,71.66,89.86c.12,8.1,2.45,9.75,9.74,6.92,5.53-2.16,5.53-2.16,2.7-7.6-2.37-4.56-1.15-11.69,2.4-14s8.86-2.1,11.82.69c2.64,2.48,3.51,9.48,1.62,13-3,5.68-3,5.68,3.08,8.1a4.29,4.29,0,0,1,1,.46c3.88,2.8,5.95,2.21,7.36-3.6A21.21,21.21,0,0,0,111.81,90.79Zm-33.9,12.59a19.84,19.84,0,0,0,24.51,3.18c1.15-.71,1.89-2.1,2.82-3.17a34.2,34.2,0,0,0-3.58-2.83c-1.15-.7-2.55-1-3.77-1.59-3.82-2-4.61-4.53-3.16-8.62a38.05,38.05,0,0,0,2.1-8.29C97.2,79,95.31,77.4,92,77.37c-3.1,0-5.26,1.41-5,4.62a25.15,25.15,0,0,0,2,7.87c1.73,4,1.23,6.61-2.54,8.79-1.5.86-3.24,1.3-4.76,2.12A40.5,40.5,0,0,0,77.91,103.38Z"/><path d="M38.45,113.19A23.62,23.62,0,1,1,62.32,89.8,23.55,23.55,0,0,1,38.45,113.19ZM29.28,84c.74-5.51,1.58-7.48,4.3-9,3.89-2.13,8.17-1.91,11.23.59,2.51,2,3.82,8,2.58,11.9-.75,2.37-2.84,5.3-2.08,6.9.88,1.86,4.26,2.48,6.51,3.73,2.8,1.56,4.53,1,5.68-2.18a19.74,19.74,0,0,0-6.77-22.11c-7.58-5.66-15.65-5.87-23.6-.61A19.78,19.78,0,0,0,19.31,95c1.42,4.52,2.36,4.88,6.7,2.75a39.3,39.3,0,0,1,3.82-1.5c2.81-1,3.65-2.52,2-5.41C30.61,88.75,30.1,86.27,29.28,84ZM38,110.13c3.69-1.07,6.75-1.66,9.54-2.87,1.68-.72,3-2.39,4.41-3.64-1.6-1.15-3.06-2.67-4.83-3.38-6.4-2.58-7.63-5.59-4.9-11.8A17.89,17.89,0,0,0,43.48,82c.13-3.29-1.79-4.81-5.26-4.61-3.26.18-5.16,2.25-4.55,5.42A44.88,44.88,0,0,0,36,90.61c1.39,3.53.59,6.32-2.87,8.09-1.75.9-3.73,1.37-5.47,2.31a5,5,0,0,0-2.4,2.49c-.17.6,1,2,1.84,2.4C30.77,107.49,34.57,108.82,38,110.13Z"/><path class="cls-1" d="M57.66,131.83c-1.34.93-2.39,1.57-3.34,2.32-4.41,3.51-3.72,9.24,1.46,11.37a18.71,18.71,0,0,0,6.11,1.62c14.53.5,29.06.93,43.6,1.09,1.83,0,5.35-2.14,5.26-2.42-1-3.2-3.57-1.28-5.58-1.31-9.81-.16-19.61-.21-29.41-.4-4.23-.09-8.46-.37-12.68-.67a10.94,10.94,0,0,1-4.33-.93c-1.26-.68-2.73-1.91-3-3.15-.17-.76,1.56-2.59,2.71-2.9a157.37,157.37,0,0,1,16.28-3.65c6.12-1,12.4-1,18.47-2.21a14.11,14.11,0,0,0,7.43-4.46c3.16-3.69,6.92-6,11.5-6.12a201,201,0,0,1,24.18.33c10.15.9,20.21,2.68,30.3,4.11a8.2,8.2,0,0,1,6.81,7.8q.1,7.88-.22,15.74c-.16,3.94-2,5.27-5.88,4.68-6.38-1-12.73-2.22-19.14-2.82-11.53-1.07-22,2.77-32.36,7.39-6.92,3.1-13.93,6-21,8.67-5.15,1.91-10.39,1-15.23-1.34-7.72-3.69-15.58-7.2-22.9-11.6S42.84,143.35,36,138.4c-5.63-4.08-11.23-8.23-16.75-12.47-1.06-.81-1.68-2.17-2.51-3.28,1.35-.43,2.83-1.44,4-1.19,5,1,9.84,2.46,14.76,3.69a10.92,10.92,0,0,0,3.93.63c6.34-1,11.62,1.85,16.94,4.56C56.82,130.54,57,131.07,57.66,131.83Z"/><path class="cls-1" d="M55.94,34.3c.77,2.28,1.54,4.56,2.33,6.84.29.82,1,1.71.86,2.42C58.1,48.5,53,47.32,50,49.32c-.45.3-3.33-1.63-3.65-2.89-2-7.88-.8-15.13,5.45-20.93,5.76-5.34,14.69-6.88,21.57-3.54C80.8,25.6,84.88,31.59,85,40.07a27.65,27.65,0,0,1-.34,3.73c-.75,5.94-1.75,6.49-7.29,4.12-.79-.34-1.66-.52-2.47-.82-3.91-1.44-4.38-2.78-2.26-6.39,2.74-4.66,1.91-12.26-1.68-14.77a9.19,9.19,0,0,0-9.87-.84C57.42,26.9,56.69,28.45,55.94,34.3Z"/><path class="cls-1" d="M65.48,61c-4.17-1.53-7.78-2.68-11.21-4.22a4.1,4.1,0,0,1-2.06-3c0-.74,1.51-1.72,2.52-2.28,1.4-.78,3-1.15,4.44-1.89,3.95-2.06,4.71-4.8,3.17-9a33.59,33.59,0,0,1-1.83-8.29C60.22,29.1,62.34,28,65.28,28s5,1.29,4.8,4.36a25.14,25.14,0,0,1-1.76,7.94c-1.89,4.54-1.18,7.2,3.3,9.43,1.55.77,3.27,1.21,4.82,2,2.38,1.19,2.94,3.14.46,4.45C73.29,58.12,69.35,59.43,65.48,61Z"/><path class="cls-1" d="M111.81,90.79a21.21,21.21,0,0,1-.41,3c-1.41,5.81-3.48,6.4-7.36,3.6a4.29,4.29,0,0,0-1-.46c-6.11-2.42-6.11-2.42-3.08-8.1,1.89-3.54,1-10.54-1.62-13-3-2.79-8.15-3.09-11.82-.69s-4.77,9.45-2.4,14c2.83,5.44,2.83,5.44-2.7,7.6-7.29,2.83-9.62,1.18-9.74-6.92C71.5,78.92,81.2,69.38,92.33,69.53,103,69.67,112.07,79.22,111.81,90.79Z"/><path class="cls-1" d="M77.91,103.38a40.5,40.5,0,0,1,3.76-2.61c1.52-.82,3.26-1.26,4.76-2.12,3.77-2.18,4.27-4.74,2.54-8.79A25.15,25.15,0,0,1,87,82c-.24-3.21,1.92-4.64,5-4.62,3.33,0,5.22,1.61,4.85,4.69a38.05,38.05,0,0,1-2.1,8.29C93.28,94.44,94.07,97,97.89,99c1.22.62,2.62.89,3.77,1.59a34.2,34.2,0,0,1,3.58,2.83c-.93,1.07-1.67,2.46-2.82,3.17A19.84,19.84,0,0,1,77.91,103.38Z"/><path class="cls-1" d="M29.28,84c.82,2.29,1.33,4.77,2.53,6.84,1.67,2.89.83,4.39-2,5.41A39.3,39.3,0,0,0,26,97.73c-4.34,2.13-5.28,1.77-6.7-2.75a19.78,19.78,0,0,1,7.82-21.76c8-5.26,16-5,23.6.61A19.74,19.74,0,0,1,57.5,95.94c-1.15,3.18-2.88,3.74-5.68,2.18-2.25-1.25-5.63-1.87-6.51-3.73-.76-1.6,1.33-4.53,2.08-6.9,1.24-3.93-.07-9.85-2.58-11.9-3.06-2.5-7.34-2.72-11.23-.59C30.86,76.5,30,78.47,29.28,84Z"/><path class="cls-1" d="M38,110.13c-3.47-1.31-7.27-2.64-11-4.23-.86-.37-2-1.8-1.84-2.4a5,5,0,0,1,2.4-2.49c1.74-.94,3.72-1.41,5.47-2.31,3.46-1.77,4.26-4.56,2.87-8.09a44.88,44.88,0,0,1-2.31-7.84c-.61-3.17,1.29-5.24,4.55-5.42,3.47-.2,5.39,1.32,5.26,4.61a17.89,17.89,0,0,1-1.22,6.48c-2.73,6.21-1.5,9.22,4.9,11.8,1.77.71,3.23,2.23,4.83,3.38-1.46,1.25-2.73,2.92-4.41,3.64C44.79,108.47,41.73,109.06,38,110.13Z"/></g></g></svg>